<?xml version="1.0" encoding="utf-8"?>
<!-- Generator: Adobe Illustrator 19.0.0, SVG Export Plug-In . SVG Version: 6.00 Build 0)  -->
<svg version="1.1" id="Calque_1" xmlns="http://www.w3.org/2000/svg" xmlns:xlink="http://www.w3.org/1999/xlink" x="0px" y="0px"
	 viewBox="-331 152 296 258" style="enable-background:new -331 152 296 258;" xml:space="preserve">
<style type="text/css">
	.st0{fill:#727272;}
	.st1{clip-path:url(#SVGID_2_);}
	.st2{fill:#32D684;}
	.st3{fill:#0C2D3A;}
	.st4{fill:#295863;}
	.st5{fill:#256981;}
	.st6{fill:#F7D0AD;}
</style>
<path class="st0" d="M-271.6,324.5v-28.9h25.7v-58.4h16.1l-39,21.6v-32.9l33.4-18.4h25.2v88.1h24.1v28.9H-271.6z"/>
<g>
	<g>
		<defs>
			<rect id="SVGID_1_" x="-238.4" y="234.5" width="152" height="120"/>
		</defs>
		<clipPath id="SVGID_2_">
			<use xlink:href="#SVGID_1_"  style="overflow:visible;"/>
		</clipPath>
		<g class="st1">
			<path class="st2" d="M-147.6,348.6c17.1,1.8,33-1.3,43.7-6.2c10.9-5.1,16.8-12.1,17.4-22.9c1-22.1-32.3-61.7-65.9-79.2
				c-17.7-9.2-33.6-6.9-44,3.1c-10.6,9.8-15.6,27.3-16.1,44.8c-0.6,18.2,7.9,34.3,20.1,44.3C-180.1,342.8-164.2,346.8-147.6,348.6
				L-147.6,348.6z"/>
			<path class="st3" d="M-225.6,354.5h-12.8l52.7-39.1l4.4,5.9L-225.6,354.5z"/>
			<path class="st4" d="M-108.4,324.6l-54.7-3c-3.7,0-6.7-2.4-6.7-5.4v-31.5c0-3,3-5.4,6.7-5.4l54.7-5.3c3.7,0,6.7,2.4,6.7,5.4v39.8
				C-101.8,322.2-104.8,324.6-108.4,324.6L-108.4,324.6z"/>
			<path class="st5" d="M-112.7,320.7l-46.3-2.6c-3.1,0-5.6-2-5.6-4.6v-26.7c0-2.5,2.5-4.6,5.6-4.6l46.3-4.5c3.1,0,5.6,2,5.6,4.6
				V316C-107,318.6-109.6,320.7-112.7,320.7L-112.7,320.7z"/>
			<path class="st3" d="M-197.3,339l-8.9-12.1c-2.3-3.1-1.6-7.5,1.5-9.7l46.4-34l17,23.4l-46.4,34
				C-190.7,342.8-195.1,342.1-197.3,339L-197.3,339z"/>
			<path class="st3" d="M-131,294.5l-0.2,14.9c-0.6,3.8-4.1,6.4-7.9,5.8l-23.5-3.3l4.4-28.6l21.5,3.3
				C-133,287.1-130.4,290.7-131,294.5L-131,294.5z"/>
			<path class="st4" d="M-130.6,264.9l22.1,8.9c4.4,0,7.9,2.9,7.9,6.5v38.2c0,3.6-3.6,6.5-7.9,6.5l-22.1,10.2
				c-4.4,0-7.9-2.9-7.9-6.5v-57.2C-138.5,267.9-134.9,264.9-130.6,264.9L-130.6,264.9z"/>
			<path class="st6" d="M-155.3,315.6c0,0-1.5-2.2-3.5-5.2c-1.2-1.7-2.5-3.7-3.9-5.7c-3.9-5.8-8.1-11.9-8.3-12.1v-0.1l-0.1-0.2
				l0.6-0.1l7.3-5.4l-0.2-0.5c-1.4-3.1-4.4-5.1-7.5-5.2c-8.5-0.2-16.7,0-16.7,0l-4.4-7.4l-31.1,1.1l16.6,23.2l-0.5,4.5
				c-0.2,1.7,0.2,3.3,1.1,4.7l4.9,7.3l12,18.1l0.5,0.7l0.1-0.1c1.6,1.7,3.6,1.7,5.1,0.5s2.1-3.2,1.1-5.4l1.5-1.2l1.7,2.5
				c1.7,2.6,4.1,2.8,5.8,1.4c1.8-1.4,2.3-3.9,0.6-6.5l-1.7-2.5l1.2-0.9l3.3,5c1.7,2.6,3.7,2.3,5.5,0.9s2.6-3.4,0.9-6l-3.2-4.9
				l-0.1-0.2l1.3-1l0.1,0.2l3.6,5.5c1.7,2.6,4.1,2.8,5.8,1.4C-154.1,320.7-153.5,318.2-155.3,315.6L-155.3,315.6z"/>
		</g>
	</g>
</g>
</svg>
