<?xml version="1.0" encoding="utf-8"?>
<!-- Generator: Adobe Illustrator 19.0.0, SVG Export Plug-In . SVG Version: 6.00 Build 0)  -->
<svg version="1.1" id="Calque_1" xmlns="http://www.w3.org/2000/svg" xmlns:xlink="http://www.w3.org/1999/xlink" x="0px" y="0px"
	 viewBox="-331 152 296 258" style="enable-background:new -331 152 296 258;" xml:space="preserve">
<style type="text/css">
	.st0{fill:#727272;}
	.st1{clip-path:url(#SVGID_2_);}
	.st2{fill:#32D684;}
	.st3{fill:#256981;}
	.st4{fill:#F8DE61;}
	.st5{fill:#B3AB33;}
	.st6{fill:#23A48B;}
	.st7{fill:#A8C2CB;}
	.st8{fill:#CCD3D4;}
	.st9{fill:#FFFFFF;}
	.st10{fill:#093D5F;}
	.st11{fill:#0C2D3A;}
	.st12{fill:#295863;}
	.st13{fill:#F7D0AD;}
	.st14{font-family:'MyriadPro-Regular';}
	.st15{font-size:5px;}
	.st16{font-size:8px;}
</style>
<path class="st0" d="M-284.5,319v-26.2l33.7-34.9c4-4.2,6.8-7.6,8.3-10.3c1.7-2.8,2.5-5.5,2.5-8.3c0-3.4-1.2-6-3.7-7.6
	c-2.3-1.8-5.7-2.7-10.1-2.7c-4,0-8.2,0.8-12.6,2.3c-4.3,1.4-8.7,3.8-13.3,7l-10.8-25.9c5.3-3.9,11.7-6.9,19.1-9.1
	c7.5-2.2,15.2-3.3,22.9-3.3c14.2,0,24.9,3,32.2,9.1c7.4,6,11.1,14.6,11.1,25.9c0,7.1-1.5,13.8-4.6,20.3c-3.1,6.4-8.5,13.3-16.3,20.6
	l-24.4,23.2v-9h49.5V319H-284.5z"/>
<g>
	<defs>
		<rect id="SVGID_1_" x="-221" y="210" width="124" height="142"/>
	</defs>
	<clipPath id="SVGID_2_">
		<use xlink:href="#SVGID_1_"  style="overflow:visible;"/>
	</clipPath>
	<g class="st1">
		<path class="st2" d="M-137.9,344.2c14.3-6.9,25.7-18.5,32.4-29.5c6.8-11.3,8.8-22,5.4-34.2c-7.4-24.8-48.5-51.1-81.7-52.9
			c-17.5-1-29.2,9.9-33.7,26.2c-4.7,16.3-2.3,38.1,3.8,57.6c6.3,20.3,19,33.6,32.4,38.3C-165.8,354.7-151.7,350.9-137.9,344.2
			L-137.9,344.2z"/>
		<path class="st3" d="M-148.1,294.3l-48.1,7.1c-1.7,0.3-2.9,1.9-2.6,3.6l4.2,28.7c0.3,1.7,1.8,2.9,3.6,2.7l48.1-7.1
			c1.7-0.3,2.9-1.9,2.6-3.6l-4.2-28.7C-144.8,295.3-146.3,294.1-148.1,294.3z"/>
		<path class="st4" d="M-185.6,309.3l-6.7,1c-0.8,0.1-1.4,0.9-1.2,1.7l0.8,5.2c0.1,0.8,0.9,1.4,1.7,1.3l6.7-1
			c0.8-0.1,1.4-0.9,1.2-1.7l-0.8-5.2C-184.1,309.7-184.8,309.1-185.6,309.3z"/>
		<path class="st5" d="M-183.2,316l-9.6,1.4l0,0.2l9.6-1.4L-183.2,316z"/>
		<path class="st5" d="M-188.9,310.7l-4.8,0.7l0,0.2l4.8-0.7L-188.9,310.7z"/>
		<path class="st5" d="M-184,310l-4.8,0.7l0,0.2l4.8-0.7L-184,310z"/>
		<path class="st5" d="M-183.4,314.1l-2.9,0.4l0,0.2l2.9-0.4L-183.4,314.1z"/>
		<path class="st5" d="M-190.1,315.1l-2.9,0.4l0,0.2l2.9-0.4L-190.1,315.1z"/>
		<path class="st5" d="M-188,316.9c-1.1,0.2-2.1-0.6-2.3-1.7c-0.1-0.4,0-0.8,0.2-1.2c-0.3-0.3-0.4-0.7-0.5-1.1
			c-0.2-1.1,0.6-2.1,1.7-2.3l0,0.2c-1,0.1-1.7,1.1-1.5,2c0.1,0.4,0.2,0.7,0.5,1l0.1,0.1l0,0.1c-0.2,0.3-0.2,0.7-0.2,1.1
			c0.1,1,1.1,1.7,2,1.5c1-0.1,1.7-1.1,1.5-2c-0.1-0.4-0.2-0.7-0.5-1l-0.1-0.1l0-0.1c0.2-0.3,0.2-0.7,0.2-1.1v-0.1l3-0.5l0,0.2
			l-2.8,0.4c0,0.4,0,0.7-0.2,1.1c0.3,0.3,0.4,0.7,0.5,1.1C-186.1,315.7-186.8,316.7-188,316.9L-188,316.9z"/>
		<path class="st5" d="M-190.5,312.9l-2.9,0.4l0,0.2l2.9-0.4L-190.5,312.9z"/>
		<path class="st5" d="M-188.9,309.7l-0.2,0l0.2,1.1l0.2,0L-188.9,309.7z"/>
		<path class="st5" d="M-187.9,316.8l-0.2,0l0.2,1.1l0.2,0L-187.9,316.8z"/>
		<path class="st6" d="M-160,300.4l0.9-0.1c0.4-0.1,0.7,0,0.9,0c0.2,0.1,0.3,0.3,0.4,0.5c0,0.2,0,0.3-0.1,0.5
			c-0.1,0.1-0.2,0.2-0.3,0.2c0.2,0,0.3,0.1,0.5,0.2c0.1,0.1,0.2,0.2,0.2,0.5c0,0.3,0,0.5-0.2,0.7c-0.2,0.2-0.4,0.3-0.8,0.3l-1.1,0.2
			L-160,300.4L-160,300.4z M-159.2,301.5l0.4-0.1c0.2,0,0.3-0.1,0.4-0.1c0.1-0.1,0.1-0.2,0.1-0.3c0-0.1-0.1-0.2-0.2-0.2
			c-0.1,0-0.2,0-0.4,0l-0.3,0L-159.2,301.5L-159.2,301.5z M-159.1,302l0.1,0.8l0.4-0.1c0.2,0,0.3-0.1,0.4-0.2
			c0.1-0.1,0.1-0.2,0.1-0.3c0-0.2-0.2-0.3-0.6-0.3L-159.1,302L-159.1,302z"/>
		<path class="st6" d="M-155,302.7l-0.3-0.7l-1.1,0.2l-0.1,0.7l-0.7,0.1l0.6-3.2l0.8-0.1l1.5,2.9L-155,302.7L-155,302.7z
			 M-155.5,301.5c-0.3-0.6-0.5-1-0.5-1.1c0-0.1-0.1-0.1-0.1-0.2c0,0.2-0.1,0.6-0.2,1.4L-155.5,301.5L-155.5,301.5z"/>
		<path class="st6" d="M-151.3,302.2l-0.8,0.1l-1.6-2.1c0.1,0.4,0.1,0.7,0.2,0.8l0.2,1.4l-0.6,0.1l-0.4-3l0.8-0.1l1.6,2.1
			c-0.1-0.4-0.1-0.7-0.1-0.8l-0.2-1.4l0.6-0.1L-151.3,302.2z"/>
		<path class="st6" d="M-148.1,301.7l-0.7,0.1l-1-1.2l-0.2,0.2l0.2,1.1l-0.6,0.1l-0.4-3l0.6-0.1l0.2,1.4l0.2-0.4l0.7-1.1l0.7-0.1
			l-0.8,1.5L-148.1,301.7L-148.1,301.7z"/>
		<path class="st6" d="M-190.4,324.5l-0.5,0.1l-0.3-2c0-0.2-0.1-0.4-0.1-0.6c0,0-0.1,0.1-0.1,0.1c0,0-0.2,0.2-0.4,0.5l-0.3-0.3
			l0.8-0.8l0.4-0.1L-190.4,324.5L-190.4,324.5z"/>
		<path class="st6" d="M-187.3,324l-2.1,0.3l-0.1-0.4l0.7-0.9c0.2-0.3,0.3-0.5,0.4-0.6c0.1-0.1,0.1-0.2,0.1-0.3c0-0.1,0-0.2,0-0.3
			c0-0.1-0.1-0.2-0.2-0.3c-0.1-0.1-0.2-0.1-0.4-0.1c-0.1,0-0.2,0.1-0.3,0.1c-0.1,0.1-0.2,0.2-0.3,0.3l-0.3-0.3
			c0.1-0.2,0.3-0.3,0.4-0.4c0.1-0.1,0.3-0.1,0.5-0.2c0.3,0,0.5,0,0.7,0.1c0.2,0.1,0.3,0.3,0.3,0.6c0,0.1,0,0.3,0,0.4
			c0,0.1-0.1,0.3-0.2,0.4c-0.1,0.1-0.2,0.4-0.4,0.6l-0.5,0.6l1.5-0.2L-187.3,324L-187.3,324z"/>
		<path class="st6" d="M-185.3,321.3c0,0.2,0,0.4-0.1,0.5c-0.1,0.1-0.2,0.3-0.5,0.3c0.2,0,0.5,0.1,0.6,0.2s0.2,0.3,0.3,0.5
			c0,0.3,0,0.6-0.2,0.7c-0.2,0.2-0.5,0.3-0.9,0.4c-0.3,0-0.6,0-0.9,0l-0.1-0.5c0.1,0,0.3,0.1,0.4,0.1c0.1,0,0.3,0,0.4,0
			c0.2,0,0.4-0.1,0.5-0.2c0.1-0.1,0.1-0.2,0.1-0.4c0-0.2-0.1-0.3-0.2-0.3c-0.1-0.1-0.3-0.1-0.6,0l-0.3,0l-0.1-0.4l0.3,0
			c0.5-0.1,0.7-0.3,0.7-0.6c0-0.1-0.1-0.2-0.2-0.3c-0.1-0.1-0.2-0.1-0.4-0.1c-0.1,0-0.2,0-0.3,0.1c-0.1,0-0.2,0.1-0.3,0.2l-0.3-0.3
			c0.2-0.2,0.6-0.4,0.9-0.5c0.3,0,0.6,0,0.8,0.1C-185.4,320.9-185.3,321-185.3,321.3L-185.3,321.3z"/>
		<path class="st6" d="M-182.3,322.6l-0.4,0.1l0.1,0.7l-0.5,0.1l-0.1-0.7l-1.4,0.2l-0.1-0.4l1.1-2.3l0.5-0.1l0.3,2l0.4-0.1
			L-182.3,322.6L-182.3,322.6z M-183.3,322.3l-0.1-0.8c0-0.3-0.1-0.5-0.1-0.7c0,0-0.1,0.2-0.1,0.4l-0.6,1.2L-183.3,322.3
			L-183.3,322.3z"/>
		<path class="st6" d="M-178.9,320.8c0.3,0,0.6,0,0.8,0.1c0.2,0.1,0.3,0.4,0.4,0.6c0,0.3,0,0.6-0.2,0.8c-0.2,0.2-0.5,0.4-0.8,0.4
			c-0.3,0-0.6,0-0.8,0l-0.1-0.5c0.1,0,0.3,0.1,0.4,0.1c0.1,0,0.3,0,0.4,0c0.2,0,0.4-0.1,0.5-0.2c0.1-0.1,0.1-0.3,0.1-0.5
			c-0.1-0.4-0.3-0.5-0.8-0.5c-0.1,0-0.1,0-0.2,0.1c-0.1,0-0.2,0.1-0.2,0.1l-0.2-0.1l-0.1-1.5l1.6-0.2l0.1,0.5l-1.2,0.2l0,0.8
			l0.2-0.1C-179.2,320.8-179,320.8-178.9,320.8L-178.9,320.8z"/>
		<path class="st6" d="M-177.4,321.2c-0.2-1.2,0.2-1.9,1.2-2c0.2,0,0.3,0,0.4,0l0.1,0.4c-0.1,0-0.2,0-0.4,0c-0.3,0-0.6,0.2-0.7,0.4
			c-0.1,0.2-0.2,0.5-0.1,0.9h0c0-0.1,0.1-0.2,0.2-0.3c0.1-0.1,0.2-0.1,0.4-0.2c0.3,0,0.5,0,0.7,0.2c0.2,0.2,0.3,0.4,0.3,0.7
			c0,0.3,0,0.6-0.2,0.8c-0.2,0.2-0.4,0.4-0.7,0.4c-0.2,0-0.4,0-0.6-0.1c-0.2-0.1-0.3-0.2-0.4-0.4
			C-177.3,321.7-177.4,321.5-177.4,321.2L-177.4,321.2z M-176.2,322c0.2,0,0.3-0.1,0.4-0.2c0.1-0.1,0.1-0.3,0.1-0.5
			c0-0.2-0.1-0.3-0.2-0.4c-0.1-0.1-0.2-0.1-0.4-0.1c-0.1,0-0.2,0.1-0.3,0.1c-0.1,0.1-0.1,0.1-0.2,0.2c0,0.1-0.1,0.2,0,0.2
			c0,0.2,0.1,0.4,0.2,0.5C-176.5,321.9-176.4,322-176.2,322L-176.2,322z"/>
		<path class="st6" d="M-174.4,322.1l0.8-2.8l-1.6,0.2l-0.1-0.4l2.1-0.3l0,0.4l-0.8,2.9L-174.4,322.1L-174.4,322.1z"/>
		<path class="st6" d="M-171.7,318.5c0.3,0,0.5,0,0.7,0.1c0.2,0.1,0.3,0.3,0.3,0.5c0,0.3-0.1,0.6-0.5,0.8c0.3,0.1,0.5,0.2,0.6,0.3
			c0.1,0.1,0.2,0.3,0.2,0.4c0,0.2,0,0.5-0.2,0.7c-0.2,0.2-0.4,0.3-0.7,0.4c-0.3,0.1-0.6,0-0.8-0.1c-0.2-0.1-0.3-0.3-0.4-0.6
			c0-0.2,0-0.3,0.1-0.5c0.1-0.1,0.2-0.3,0.4-0.4c-0.2-0.1-0.3-0.2-0.5-0.3c-0.1-0.1-0.2-0.2-0.2-0.4c0-0.2,0-0.4,0.2-0.6
			C-172.2,318.6-172,318.5-171.7,318.5L-171.7,318.5z M-171.9,320.9c0,0.1,0.1,0.2,0.2,0.3c0.1,0.1,0.3,0.1,0.4,0.1
			c0.2,0,0.3-0.1,0.4-0.2c0.1-0.1,0.1-0.2,0.1-0.4c0-0.1-0.1-0.2-0.2-0.3c-0.1-0.1-0.3-0.1-0.5-0.2h-0.1c-0.2,0.1-0.3,0.2-0.4,0.3
			C-171.9,320.7-171.9,320.8-171.9,320.9L-171.9,320.9z M-171.6,318.9c-0.1,0-0.2,0.1-0.3,0.2c-0.1,0.1-0.1,0.2-0.1,0.3
			c0,0.1,0,0.1,0.1,0.2c0,0.1,0.1,0.1,0.2,0.1c0.1,0,0.2,0.1,0.3,0.1c0.2-0.1,0.3-0.2,0.3-0.3c0.1-0.1,0.1-0.2,0.1-0.3
			c0-0.1-0.1-0.2-0.2-0.3C-171.4,318.9-171.5,318.8-171.6,318.9L-171.6,318.9z"/>
		<path class="st6" d="M-165.7,319c0.1,0.6,0,1.1-0.2,1.4c-0.2,0.3-0.6,0.5-1,0.6c-0.2,0-0.3,0-0.4,0l-0.1-0.4c0.1,0,0.3,0,0.4,0
			c0.3,0,0.6-0.2,0.7-0.4c0.1-0.2,0.2-0.5,0.1-0.9h0c-0.1,0.1-0.1,0.2-0.3,0.3c-0.1,0.1-0.2,0.1-0.4,0.1c-0.3,0-0.5,0-0.7-0.2
			c-0.2-0.1-0.3-0.4-0.3-0.7c0-0.3,0-0.6,0.2-0.8c0.1-0.2,0.4-0.4,0.7-0.4c0.2,0,0.4,0,0.6,0.1c0.2,0.1,0.3,0.2,0.5,0.4
			C-165.8,318.4-165.8,318.7-165.7,319z M-166.9,318.2c-0.2,0-0.3,0.1-0.4,0.2c-0.1,0.1-0.1,0.3-0.1,0.5c0,0.2,0.1,0.3,0.2,0.4
			c0.1,0.1,0.2,0.1,0.4,0.1c0.2,0,0.3-0.1,0.4-0.2c0.1-0.1,0.1-0.2,0.1-0.4c0-0.1-0.1-0.2-0.1-0.4c-0.1-0.1-0.1-0.2-0.2-0.2
			C-166.7,318.2-166.8,318.2-166.9,318.2L-166.9,318.2z"/>
		<path class="st6" d="M-163.2,318.8c0.1,0.5,0.1,0.9-0.1,1.2c-0.1,0.3-0.4,0.5-0.7,0.5c-0.3,0.1-0.6,0-0.8-0.3
			c-0.2-0.2-0.4-0.6-0.4-1.2c-0.1-0.5-0.1-1,0.1-1.3c0.1-0.3,0.4-0.5,0.7-0.5c0.3-0.1,0.6,0,0.8,0.3
			C-163.4,317.9-163.3,318.3-163.2,318.8L-163.2,318.8z M-164.8,319.1c0.1,0.4,0.1,0.7,0.3,0.9s0.3,0.2,0.5,0.2
			c0.2,0,0.3-0.1,0.4-0.3c0.1-0.2,0.1-0.5,0-0.9c-0.1-0.4-0.1-0.7-0.3-0.9c-0.1-0.2-0.3-0.2-0.4-0.2c-0.2,0-0.3,0.1-0.4,0.3
			C-164.9,318.3-164.9,318.7-164.8,319.1L-164.8,319.1z"/>
		<path class="st6" d="M-160.7,318.5c0.1,0.5,0.1,0.9-0.1,1.2c-0.1,0.3-0.4,0.5-0.7,0.5c-0.3,0.1-0.6,0-0.8-0.3
			c-0.2-0.2-0.4-0.6-0.4-1.2c-0.1-0.5-0.1-1,0.1-1.3c0.1-0.3,0.4-0.5,0.7-0.5c0.3-0.1,0.6,0,0.8,0.3S-160.8,317.9-160.7,318.5
			L-160.7,318.5z M-162.3,318.7c0.1,0.4,0.1,0.7,0.3,0.9c0.1,0.2,0.3,0.2,0.5,0.2c0.2,0,0.3-0.1,0.4-0.3c0.1-0.2,0.1-0.5,0-0.9
			c-0.1-0.4-0.1-0.7-0.3-0.9c-0.1-0.2-0.3-0.2-0.4-0.2c-0.2,0-0.3,0.1-0.4,0.3C-162.4,318-162.4,318.3-162.3,318.7L-162.3,318.7z"/>
		<path class="st6" d="M-158.3,318.1c0.1,0.5,0.1,0.9-0.1,1.2c-0.1,0.3-0.4,0.5-0.7,0.5c-0.3,0.1-0.6,0-0.8-0.3s-0.4-0.6-0.5-1.2
			c-0.1-0.5-0.1-1,0.1-1.3c0.1-0.3,0.4-0.5,0.7-0.5c0.3-0.1,0.6,0,0.8,0.3C-158.5,317.2-158.3,317.6-158.3,318.1L-158.3,318.1z
			 M-159.9,318.4c0.1,0.4,0.1,0.7,0.3,0.9c0.1,0.2,0.3,0.2,0.5,0.2c0.2,0,0.3-0.1,0.4-0.3c0.1-0.2,0.1-0.5,0-0.9
			c-0.1-0.4-0.1-0.7-0.3-0.9c-0.1-0.2-0.3-0.2-0.5-0.2c-0.2,0-0.3,0.1-0.4,0.3C-159.9,317.6-159.9,317.9-159.9,318.4L-159.9,318.4z"
			/>
		<path class="st6" d="M-153.5,317.4c0.1,0.5,0.1,0.9-0.1,1.2c-0.1,0.3-0.4,0.5-0.7,0.5c-0.3,0.1-0.6,0-0.8-0.3
			c-0.2-0.2-0.4-0.6-0.5-1.2s-0.1-1,0.1-1.3c0.1-0.3,0.4-0.5,0.7-0.5c0.3-0.1,0.6,0,0.8,0.3C-153.8,316.5-153.6,316.9-153.5,317.4
			L-153.5,317.4z M-155.1,317.7c0.1,0.4,0.1,0.7,0.3,0.9c0.1,0.2,0.3,0.2,0.5,0.2c0.2,0,0.3-0.1,0.4-0.3c0.1-0.2,0.1-0.5,0-0.9
			c-0.1-0.4-0.1-0.7-0.3-0.9s-0.3-0.2-0.5-0.2c-0.2,0-0.3,0.1-0.4,0.3C-155.2,316.9-155.2,317.2-155.1,317.7L-155.1,317.7z"/>
		<path class="st6" d="M-151.1,317c0.1,0.5,0.1,0.9-0.1,1.2c-0.1,0.3-0.4,0.5-0.7,0.5c-0.3,0.1-0.6,0-0.8-0.3
			c-0.2-0.2-0.4-0.6-0.5-1.2c-0.1-0.5-0.1-1,0.1-1.3c0.1-0.3,0.4-0.5,0.7-0.5c0.3-0.1,0.6,0,0.8,0.3
			C-151.3,316.1-151.1,316.5-151.1,317L-151.1,317z M-152.6,317.3c0.1,0.4,0.1,0.7,0.3,0.9s0.3,0.2,0.5,0.2c0.2,0,0.3-0.1,0.4-0.3
			c0.1-0.2,0.1-0.5,0-0.9c-0.1-0.4-0.1-0.7-0.3-0.9c-0.1-0.2-0.3-0.2-0.5-0.2c-0.2,0-0.3,0.1-0.4,0.3
			C-152.7,316.6-152.7,316.9-152.6,317.3L-152.6,317.3z"/>
		<path class="st6" d="M-148.6,316.7c0.1,0.5,0.1,0.9-0.1,1.2c-0.1,0.3-0.4,0.5-0.7,0.5c-0.3,0.1-0.6,0-0.8-0.3
			c-0.2-0.2-0.4-0.6-0.4-1.2c-0.1-0.5-0.1-1,0.1-1.3c0.1-0.3,0.4-0.5,0.7-0.5c0.3-0.1,0.6,0,0.8,0.3
			C-148.8,315.7-148.7,316.1-148.6,316.7L-148.6,316.7z M-150.2,316.9c0.1,0.4,0.1,0.7,0.3,0.9c0.1,0.2,0.3,0.2,0.5,0.2
			c0.2,0,0.3-0.1,0.4-0.3c0.1-0.2,0.1-0.5,0-0.9c-0.1-0.4-0.1-0.7-0.3-0.9c-0.1-0.2-0.3-0.2-0.4-0.2c-0.2,0-0.3,0.1-0.4,0.3
			C-150.2,316.2-150.2,316.5-150.2,316.9L-150.2,316.9z"/>
		<path class="st6" d="M-146.1,316.3c0.1,0.5,0.1,0.9-0.1,1.2c-0.1,0.3-0.4,0.5-0.7,0.5c-0.3,0.1-0.6,0-0.8-0.3
			c-0.2-0.2-0.4-0.6-0.5-1.2c-0.1-0.5-0.1-1,0.1-1.3c0.1-0.3,0.4-0.5,0.7-0.5c0.3-0.1,0.6,0,0.8,0.3
			C-146.3,315.4-146.2,315.8-146.1,316.3L-146.1,316.3z M-147.7,316.6c0.1,0.4,0.1,0.7,0.3,0.9c0.1,0.2,0.3,0.2,0.4,0.2
			c0.2,0,0.3-0.1,0.4-0.3c0.1-0.2,0.1-0.5,0-0.9c-0.1-0.4-0.1-0.7-0.3-0.9s-0.3-0.2-0.5-0.2s-0.3,0.1-0.4,0.3
			C-147.8,315.8-147.8,316.1-147.7,316.6L-147.7,316.6z"/>
		<path class="st6" d="M-190.1,330.5c-0.1,0-0.2,0.1-0.3,0.2c-0.1,0.1-0.1,0.2,0,0.4c0.1,0.4,0.2,0.5,0.5,0.5c0.1,0,0.2-0.1,0.4-0.1
			l0,0.3c-0.1,0.1-0.3,0.1-0.4,0.1c-0.2,0-0.4,0-0.6-0.1c-0.1-0.1-0.2-0.3-0.3-0.6c0-0.2,0-0.3,0-0.5c0-0.1,0.1-0.2,0.2-0.3
			c0.1-0.1,0.2-0.1,0.4-0.2s0.3,0,0.5,0l-0.1,0.3c0,0-0.1,0-0.2,0C-189.9,330.5-190,330.5-190.1,330.5L-190.1,330.5z"/>
		<path class="st6" d="M-188.1,331.6l-0.2-0.4l-0.6,0.1l-0.1,0.4l-0.4,0.1l0.3-1.7l0.4-0.1l0.8,1.5L-188.1,331.6L-188.1,331.6z
			 M-188.4,331c-0.2-0.3-0.2-0.5-0.3-0.6c0,0,0-0.1,0-0.1c0,0.1,0,0.3-0.1,0.7L-188.4,331L-188.4,331z"/>
		<path class="st6" d="M-187.3,330.9l0.1,0.6l-0.3,0l-0.2-1.6l0.5-0.1c0.2,0,0.4,0,0.5,0c0.1,0.1,0.2,0.2,0.2,0.4c0,0.1,0,0.2,0,0.3
			c0,0.1-0.1,0.1-0.2,0.2c0.3,0.3,0.5,0.5,0.6,0.6l-0.4,0.1l-0.5-0.6L-187.3,330.9L-187.3,330.9z M-187.3,330.6h0.1
			c0.1,0,0.2-0.1,0.2-0.1c0,0,0.1-0.1,0.1-0.2c0-0.1,0-0.1-0.1-0.1c-0.1,0-0.1,0-0.2,0h-0.1L-187.3,330.6L-187.3,330.6z"/>
		<path class="st6" d="M-184.8,330.3c0,0.3,0,0.5-0.1,0.7c-0.1,0.2-0.3,0.3-0.6,0.3l-0.5,0.1l-0.2-1.6l0.5-0.1c0.3,0,0.5,0,0.7,0.1
			C-185,329.9-184.9,330-184.8,330.3L-184.8,330.3z M-185.2,330.3c-0.1-0.3-0.2-0.5-0.5-0.5h-0.2l0.2,1.1h0.1
			C-185.2,330.9-185.1,330.7-185.2,330.3L-185.2,330.3z"/>
		<path class="st6" d="M-183,330.9l-0.3,0l-0.1-0.7l-0.6,0.1l0.1,0.7l-0.3,0l-0.2-1.6l0.3,0l0.1,0.6l0.6-0.1l-0.1-0.6l0.3,0
			L-183,330.9z"/>
		<path class="st6" d="M-181.3,329.8c0,0.3,0,0.5-0.1,0.7c-0.1,0.2-0.3,0.3-0.5,0.3c-0.2,0-0.5,0-0.6-0.1c-0.2-0.1-0.2-0.3-0.3-0.6
			s0-0.5,0.1-0.7c0.1-0.2,0.3-0.3,0.6-0.3c0.3,0,0.5,0,0.6,0.1C-181.4,329.3-181.3,329.5-181.3,329.8L-181.3,329.8z M-182.5,330
			c0,0.2,0.1,0.3,0.2,0.4c0.1,0.1,0.2,0.1,0.3,0.1c0.3,0,0.4-0.2,0.3-0.6c-0.1-0.4-0.2-0.5-0.5-0.5c-0.1,0-0.2,0.1-0.3,0.2
			C-182.5,329.6-182.5,329.8-182.5,330z"/>
		<path class="st6" d="M-180.8,330.6l-0.2-1.6l0.3,0l0.2,1.3l0.7-0.1l0,0.3L-180.8,330.6L-180.8,330.6z"/>
		<path class="st6" d="M-178.3,329.3c0,0.3,0,0.5-0.1,0.7c-0.1,0.2-0.3,0.3-0.6,0.3l-0.5,0.1l-0.2-1.6l0.5-0.1c0.3,0,0.5,0,0.7,0.1
			C-178.4,328.9-178.3,329.1-178.3,329.3L-178.3,329.3z M-178.6,329.4c-0.1-0.3-0.2-0.5-0.5-0.5h-0.2l0.2,1.1h0.1
			C-178.7,330-178.6,329.7-178.6,329.4L-178.6,329.4z"/>
		<path class="st6" d="M-176.9,330l-0.9,0.1l-0.2-1.6l0.9-0.1l0,0.3l-0.6,0.1l0.1,0.4l0.6-0.1l0,0.3l-0.6,0.1l0.1,0.4l0.6-0.1
			L-176.9,330L-176.9,330z"/>
		<path class="st6" d="M-176.3,329.2l0.1,0.6l-0.3,0l-0.2-1.6l0.5-0.1c0.2,0,0.4,0,0.5,0c0.1,0.1,0.2,0.2,0.2,0.4c0,0.1,0,0.2,0,0.3
			c0,0.1-0.1,0.1-0.2,0.2c0.3,0.3,0.5,0.5,0.6,0.6l-0.4,0.1l-0.5-0.6L-176.3,329.2L-176.3,329.2z M-176.4,329h0.1
			c0.1,0,0.2-0.1,0.2-0.1c0,0,0.1-0.1,0.1-0.2c0-0.1,0-0.1-0.1-0.1c-0.1,0-0.1,0-0.2,0h-0.1L-176.4,329L-176.4,329z"/>
		<path class="st6" d="M-160.9,322.8c0,0.3,0,0.5,0,0.7c-0.1,0.2-0.2,0.2-0.4,0.3c-0.2,0-0.4,0-0.5-0.2c-0.1-0.1-0.2-0.4-0.2-0.6
			c0-0.3,0-0.5,0-0.7c0.1-0.2,0.2-0.2,0.4-0.3c0.2,0,0.4,0,0.5,0.2S-161,322.6-160.9,322.8z M-161.8,323c0,0.2,0.1,0.4,0.1,0.5
			c0,0.1,0.1,0.1,0.2,0.1c0.1,0,0.1-0.1,0.2-0.2c0-0.1,0-0.2,0-0.5c0-0.2-0.1-0.4-0.1-0.5c-0.1-0.1-0.1-0.1-0.2-0.1
			c-0.1,0-0.1,0.1-0.2,0.2C-161.8,322.6-161.8,322.7-161.8,323z"/>
		<path class="st6" d="M-159.6,322.6c0,0.3,0,0.5,0,0.7c-0.1,0.2-0.2,0.2-0.4,0.3s-0.4,0-0.5-0.2c-0.1-0.1-0.2-0.4-0.2-0.6
			c0-0.3,0-0.5,0-0.7c0.1-0.2,0.2-0.2,0.4-0.3s0.4,0,0.5,0.2S-159.6,322.3-159.6,322.6z M-160.4,322.8c0,0.2,0.1,0.4,0.1,0.5
			c0,0.1,0.1,0.1,0.2,0.1c0.1,0,0.1-0.1,0.2-0.2c0-0.1,0-0.2,0-0.5c0-0.2-0.1-0.4-0.1-0.5c-0.1-0.1-0.1-0.1-0.2-0.1
			c-0.1,0-0.1,0.1-0.2,0.2C-160.4,322.4-160.4,322.5-160.4,322.8z"/>
		<path class="st6" d="M-158.6,321.6l-0.4,1.8l-0.3,0l0.4-1.8L-158.6,321.6z"/>
		<path class="st6" d="M-157.2,322.3c0,0.3,0,0.5,0,0.7c-0.1,0.2-0.2,0.2-0.4,0.3c-0.2,0-0.4,0-0.5-0.2c-0.1-0.1-0.2-0.4-0.2-0.6
			s0-0.5,0-0.7c0.1-0.2,0.2-0.2,0.4-0.3c0.2,0,0.4,0,0.5,0.2C-157.3,321.8-157.2,322-157.2,322.3z M-158,322.4
			c0,0.2,0.1,0.4,0.1,0.5c0,0.1,0.1,0.1,0.2,0.1s0.1-0.1,0.2-0.2c0-0.1,0-0.2,0-0.5c0-0.2-0.1-0.4-0.1-0.5c-0.1-0.1-0.1-0.1-0.2-0.1
			s-0.1,0.1-0.2,0.2C-158.1,322-158,322.2-158,322.4z"/>
		<path class="st6" d="M-155.8,322.1c0,0.3,0,0.5,0,0.7c-0.1,0.2-0.2,0.2-0.4,0.3s-0.4,0-0.5-0.2c-0.1-0.1-0.2-0.4-0.2-0.6
			c0-0.3,0-0.5,0-0.7c0.1-0.2,0.2-0.2,0.4-0.3c0.2,0,0.4,0,0.5,0.2C-155.9,321.6-155.9,321.8-155.8,322.1z M-156.7,322.2
			c0,0.2,0.1,0.4,0.1,0.5c0,0.1,0.1,0.1,0.2,0.1c0.1,0,0.1-0.1,0.2-0.2c0-0.1,0-0.2,0-0.5c0-0.2-0.1-0.4-0.1-0.5
			c-0.1-0.1-0.1-0.1-0.2-0.1c-0.1,0-0.1,0.1-0.2,0.2C-156.7,321.8-156.7,322-156.7,322.2z"/>
		<path class="st6" d="M-165.3,322.6h0.1l-0.1,0.7h-0.2l-0.3-0.6h0.1l0.2,0.4l0,0.1v0.1c0,0,0-0.1,0-0.1L-165.3,322.6L-165.3,322.6z
			"/>
		<path class="st6" d="M-164.6,323.1l-0.1-0.1l-0.2,0v0.2h-0.2l0.1-0.7h0.2l0.3,0.6H-164.6L-164.6,323.1z M-164.7,322.9l-0.1-0.2v0
			c0,0,0,0.1-0.1,0.3L-164.7,322.9L-164.7,322.9z"/>
		<path class="st6" d="M-164.3,323.1l-0.1-0.7h0.1l0.1,0.5l0.3,0v0.1L-164.3,323.1L-164.3,323.1z"/>
		<path class="st6" d="M-163.8,323l-0.1-0.7h0.1l0.1,0.7L-163.8,323L-163.8,323z"/>
		<path class="st6" d="M-163,322.6c0,0.1,0,0.2-0.1,0.3c-0.1,0.1-0.1,0.1-0.3,0.1h-0.2l-0.1-0.6l0.2,0c0.1,0,0.2,0,0.3,0
			C-163.1,322.3-163,322.4-163,322.6L-163,322.6z M-163.1,322.6c0-0.1-0.1-0.2-0.2-0.2h-0.1l0.1,0.5h0.1
			C-163.2,322.8-163.1,322.7-163.1,322.6L-163.1,322.6z"/>
		<path class="st6" d="M-165.1,324.4h-0.1l-0.1-0.5h-0.2v-0.1l0.5-0.1v0.1h-0.2L-165.1,324.4L-165.1,324.4z"/>
		<path class="st6" d="M-164.3,324.3h-0.1l0-0.3l-0.3,0l0,0.3h-0.1l-0.1-0.7h0.1l0,0.2l0.3,0l0-0.3h0.1L-164.3,324.3L-164.3,324.3z"
			/>
		<path class="st6" d="M-164,324l0,0.3h-0.1l-0.1-0.7h0.2c0,0,0.2,0,0.2,0c0,0,0.1,0.1,0.1,0.1c0,0,0,0.1,0,0.1c0,0,0,0.1-0.1,0.1
			c0.1,0.1,0.2,0.2,0.2,0.3h-0.2L-164,324L-164,324L-164,324z M-164,323.9L-164,323.9c0,0,0.1,0,0.1,0c0,0,0,0,0-0.1
			c0,0,0-0.1,0-0.1c0,0-0.1,0-0.1,0h0L-164,323.9L-164,323.9z"/>
		<path class="st6" d="M-163.1,323.4l0.1,0.4c0,0,0,0.1,0,0.1c0,0,0,0.1-0.1,0.1c0,0-0.1,0-0.1,0.1c-0.1,0-0.2,0-0.2,0
			c-0.1,0-0.1-0.1-0.1-0.2l-0.1-0.4h0.1l0.1,0.4c0,0,0,0.1,0,0.1c0,0,0.1,0,0.1,0s0.1,0,0.1,0c0,0,0-0.1,0-0.1l-0.1-0.4
			L-163.1,323.4L-163.1,323.4z"/>
		<path class="st6" d="M-147.2,325.5c1.2,0,2.2-1,2.2-2.2c0-1.2-1-2.2-2.2-2.2s-2.2,1-2.2,2.2C-149.4,324.5-148.4,325.5-147.2,325.5
			z"/>
		<path class="st7" d="M-150,326c1.2,0,2.2-1,2.2-2.2s-1-2.2-2.2-2.2s-2.2,1-2.2,2.2S-151.2,326-150,326z"/>
		<path class="st8" d="M-169.2,244.3c3.8,0.3,6.6,3.5,6.3,7.1l-5.2,61.1c-0.3,3.6-3.6,6.3-7.4,6l-24-2.1c-3.8-0.3-6.6-3.5-6.3-7.1
			l5.2-61.1c0.3-3.6,3.6-6.3,7.4-6L-169.2,244.3L-169.2,244.3z"/>
		<path class="st9" d="M-168.5,245.5c3.6,0.3,4.8,3.2,4.5,6.6l-5,59.5c-0.3,3.4-2,6.1-5.5,5.8l-25.1-2.1c-3.6-0.3-5.3-2.8-5-6.2
			l5.1-60.3c0.3-3.4,2.4-5.6,6-5.3L-168.5,245.5L-168.5,245.5z"/>
		<path class="st10" d="M-198.5,252l-4.5,53.6l32.8,2.8l4.5-53.7L-198.5,252z"/>
		<path class="st7" d="M-186.9,314.4c1.3,0.1,2.4-0.8,2.5-2.1c0.1-1.3-0.8-2.4-2.1-2.6c-1.3-0.1-2.4,0.8-2.5,2.1
			C-189.2,313.1-188.2,314.3-186.9,314.4z"/>
		<path class="st11" d="M-175.2,249.9c0,0,0.1-0.1,0.2-0.2c0-0.1,0-0.2-0.1-0.2l-12.8-1.1c0,0-0.1,0.1-0.2,0.2c0,0.1,0,0.2,0.1,0.2
			L-175.2,249.9z"/>
		<path class="st8" d="M-167.9,257l-29.1-2.5l-4.1,48.4l29.1,2.5L-167.9,257z"/>
		<path class="st9" d="M-177.4,272.1l-12.8-1.1l0,0.5l12.8,1.1L-177.4,272.1z"/>
		<path class="st9" d="M-177.5,273.7l-12.8-1.1l0,0.5l12.8,1.1L-177.5,273.7z"/>
		<path class="st9" d="M-175.7,275.9l-14.9-1.3l0,0.5l14.9,1.3L-175.7,275.9z"/>
		<path class="st9" d="M-190.7,276.1l0,0.5l11.3,1l0-0.5L-190.7,276.1z"/>
		<path class="st9" d="M-178.2,282.4l-12.8-1.1l0,0.5l12.8,1.1L-178.2,282.4z"/>
		<path class="st9" d="M-178.4,284l-12.8-1.1l0,0.5l12.8,1.1L-178.4,284z"/>
		<path class="st9" d="M-176.5,286.1l-14.9-1.3l0,0.5l14.9,1.3L-176.5,286.1z"/>
		<path class="st9" d="M-191.6,286.4l0,0.5l11.3,1l0-0.5L-191.6,286.4z"/>
		<path class="st12" d="M-167.7,256.8l-29.3-2.5l-0.3,3.5l29.3,2.5L-167.7,256.8z"/>
		<path class="st13" d="M-140.5,235.2c2.5,1.1,28.2,20.6,28.2,20.6l10.9,19.8c1.3,2.3,1.7,5,1.3,7.7c-2.1,12.4-8.4,49.2-8.5,51.8
			c0,0.1,0,0.3,0,0.3l0.6,4.6c-8.3,0.7-8.4,7.7-16.6,8.8c0.3-5.2-7.8-15.9-7.7-16.2c-0.1-1.4-12.9-29.8-12.9-29.8
			s-16.3-16.1-20.1-21.1c-5.6-7.4,5.1-10.1,7-8.2c2,1.8,16.1,15.9,16.1,15.9l8.4,2.6l18.3-19.5l-2.7-8.7c0,0-21.6-20.2-23.3-21.9
			c-1.3-1.9-1-6.4,1.3-6.7L-140.5,235.2z"/>
		<path class="st11" d="M-166.1,220.3l-23,24.6c-0.3,0.3-0.3,0.9,0,1.2l44.1,41.8c0.3,0.3,0.9,0.3,1.2,0l23-24.6
			c0.3-0.3,0.3-0.9,0-1.2l-44.1-41.8C-165.3,219.9-165.8,219.9-166.1,220.3z"/>
		<path class="st3" d="M-157.2,258.6c5.8,1.1,11.7,1.9,17.6,2.5c5.6,0.6,11.2,0.8,16.8,0.9h-0.9c0.7,0,1.5,0,2.2,0.1
			c0.3,0.1,0.7,0.2,1,0.4c0.1,0.3,0,0.6-0.2,0.8l-23,24.6c-0.3,0.4-0.9,0.4-1.2,0l-37.7-35.7C-174.2,254.8-165.8,257-157.2,258.6
			L-157.2,258.6z"/>
		<path class="st8" d="M-185,244.7l40.5,38.4l1.3-1.4l-40.5-38.4L-185,244.7z"/>
		<path class="st8" d="M-182.7,242.2l40.5,38.4l0.7-0.7l-40.5-38.4L-182.7,242.2z"/>
		<path class="st9" d="M-164.3,232.3c0,0,0,0.1,0.1,0.2c0,0,0.1,0.1,0.2,0.1c1.2,0,2.1-0.9,2.1-2.1c0-0.1-0.1-0.2-0.2-0.2
			s-0.2,0.1-0.2,0.2c0,0.9-0.8,1.7-1.7,1.7C-164.2,232.1-164.3,232.2-164.3,232.3L-164.3,232.3z"/>
		<path class="st9" d="M-166.3,230.4c0,0,0,0.1,0.1,0.2c0,0,0.1,0.1,0.2,0.1c0.1,0,0.2-0.1,0.2-0.2c0-0.9,0.8-1.7,1.7-1.7
			c0.1,0,0.2-0.1,0.2-0.2c0-0.1-0.1-0.2-0.2-0.2C-165.3,228.3-166.3,229.2-166.3,230.4L-166.3,230.4z"/>
		<path class="st9" d="M-164.1,233.4c-0.1,0-0.2,0.1-0.2,0.2c0,0.1,0,0.1,0.1,0.2c0,0,0.1,0.1,0.2,0.1c1.9,0,3.4-1.5,3.4-3.4
			c0-0.1-0.1-0.2-0.2-0.2s-0.2,0.1-0.2,0.2C-161.2,232-162.5,233.4-164.1,233.4L-164.1,233.4z"/>
		<path class="st9" d="M-167.5,230.4c0,0,0,0.1,0.1,0.2c0,0,0.1,0.1,0.2,0.1c0.1,0,0.2-0.1,0.2-0.2c0-1.6,1.3-2.9,2.9-2.9
			c0.1,0,0.2-0.1,0.2-0.2c0-0.1-0.1-0.2-0.2-0.2C-166,227-167.5,228.5-167.5,230.4L-167.5,230.4z"/>
		<path class="st9" d="M-164.1,234.6c-0.1,0-0.2,0.1-0.2,0.2c0,0.1,0,0.1,0.1,0.2c0,0,0.1,0.1,0.2,0.1c2.5,0,4.6-2.1,4.6-4.6
			c0-0.1-0.1-0.2-0.2-0.2s-0.2,0.1-0.2,0.2C-160,232.7-161.8,234.6-164.1,234.6L-164.1,234.6z"/>
		<path class="st9" d="M-168.6,230.6c0,0,0.1,0.1,0.2,0.1c0.1,0,0.2-0.1,0.2-0.2c0-2.3,1.9-4.2,4.1-4.2c0.1,0,0.2-0.1,0.2-0.2
			c0-0.1-0.1-0.2-0.2-0.2c-2.5,0-4.6,2.1-4.6,4.6C-168.7,230.5-168.7,230.5-168.6,230.6L-168.6,230.6z"/>
		<path class="st9" d="M-163.5,231.1c0.4-0.4,0.4-0.9,0-1.3c-0.4-0.4-0.9-0.4-1.3,0c-0.4,0.4-0.4,1,0,1.3
			C-164.4,231.4-163.8,231.4-163.5,231.1z"/>
		<text transform="matrix(0.9965 8.403488e-002 -8.403488e-002 0.9965 -192.6542 267.0309)" class="st9 st14 st15">EVstation</text>
		<text transform="matrix(0.7654 0.6435 -0.6435 0.7654 -159.3552 239.2265)" class="st9 st14 st16">EVstation</text>
	</g>
</g>
</svg>
