<?xml version="1.0" encoding="utf-8"?>
<!-- Generator: Adobe Illustrator 19.0.0, SVG Export Plug-In . SVG Version: 6.00 Build 0)  -->
<svg version="1.1" id="Calque_1" xmlns="http://www.w3.org/2000/svg" xmlns:xlink="http://www.w3.org/1999/xlink" x="0px" y="0px"
	 viewBox="-331 152 296 258" style="enable-background:new -331 152 296 258;" xml:space="preserve">
<style type="text/css">
	.st0{fill:#727272;}
	.st1{fill:#32D684;}
	.st2{fill:none;stroke:#256981;stroke-width:0.47;stroke-miterlimit:10;}
	.st3{fill:#E1E5E5;}
	.st4{fill:#CCD3D4;}
	.st5{fill:#0C2D3A;}
	.st6{fill:#256981;}
	.st7{fill:#A8C2CB;}
	.st8{fill:none;stroke:#256981;stroke-width:0.49;stroke-miterlimit:10;}
	.st9{fill:#23A48B;}
	.st10{fill:#295863;}
	.st11{fill:none;stroke:#256981;stroke-width:0.52;stroke-miterlimit:10;}
	.st12{font-family:'MyriadPro-Regular';}
	.st13{font-size:4px;}
</style>
<path class="st0" d="M-241.5,321c-8.4,0-16.5-1.1-24.4-3.3c-7.9-2.2-14.1-5.1-18.6-8.8l10.6-26.4c4.6,3.1,9.6,5.5,14.9,7.1
	c5.3,1.5,10.7,2.3,16.1,2.3c5.2,0,9-0.8,11.5-2.3c2.5-1.5,3.8-3.9,3.8-7c0-3-1.1-5.1-3.2-6.5c-2.1-1.3-5.3-2-9.5-2h-21.4v-27.9h17.9
	c3.9,0,6.9-0.7,9.1-2.2c2.2-1.4,3.3-3.5,3.3-6.3c0-2.9-1.1-5-3.3-6.5c-2.2-1.5-5.5-2.3-9.8-2.3c-10,0-19.1,3.1-27.6,9.3l-10.8-25.9
	c5.2-3.9,11.5-6.9,18.9-9.1c7.4-2.2,15.1-3.3,23.1-3.3c13.6,0,24.2,2.9,31.9,8.8c7.6,5.8,11.5,13.8,11.5,24.2
	c0,6.5-1.9,12.2-5.6,16.9c-3.7,4.8-8.7,7.9-15.3,9.5v-2.5c7.6,1.2,13.6,4.4,17.9,9.6c4.4,5.2,6.6,11.7,6.6,19.6
	c0,10.8-4.3,19.4-12.8,25.6C-214.9,317.9-226.6,321-241.5,321z"/>
<path class="st1" d="M-225.1,285.4c-1.2,15.7,3,31.2,9.1,42.5c6.3,11.4,14.4,18.5,26.6,21.7c24.9,6.1,67.9-16.1,86.1-43.6
	c9.6-14.5,6.1-30-5.6-42c-11.6-12.2-31.5-21-51.2-25.5c-20.5-4.7-38.3-0.5-48.9,8.7C-220.1,256.3-223.9,270.3-225.1,285.4
	L-225.1,285.4z"/>
<path class="st2" d="M-111.7,282c0,0-5.5-6.8-5.5,10.4c0,10.9-2.8,11.2-10.7,11.2"/>
<path class="st3" d="M-98.3,322.7h-13.5v4.5h13.5V322.7z"/>
<path class="st4" d="M-97.3,325.4h-15.5v1.8h15.5V325.4z"/>
<path class="st4" d="M-112.3,278.4v45.7h14.5v-51.5h-14.5V278.4L-112.3,278.4z"/>
<path class="st5" d="M-105.9,300.1h-3.8v2.2h3.8V300.1z"/>
<path class="st5" d="M-108.7,295.3h0.4v0.1h-0.3v0.2h0.2v0.1h-0.2v0.3h-0.1V295.3L-108.7,295.3z"/>
<path class="st5" d="M-108.1,295.3h0.1l0.3,0.7h-0.1l-0.1-0.2h-0.3l-0.1,0.2h-0.1L-108.1,295.3L-108.1,295.3z M-107.9,295.7
	l-0.1-0.3l-0.1,0.3H-107.9z"/>
<path class="st5" d="M-107.6,295.9L-107.6,295.9C-107.6,295.9-107.5,295.9-107.6,295.9c0.1,0.1,0.1,0.1,0.1,0.1c0,0,0,0,0.1,0
	c0,0,0.1,0,0.1,0c0,0,0,0,0-0.1c0,0,0-0.1,0-0.1c0,0-0.1,0-0.1,0c0,0-0.1,0-0.1,0c0,0,0,0-0.1,0c0,0,0,0,0-0.1s0,0,0-0.1
	c0,0,0,0,0-0.1s0,0,0-0.1c0,0,0,0,0.1,0c0,0,0.1,0,0.1,0c0,0,0.1,0,0.1,0c0,0,0,0,0.1,0c0,0,0,0,0,0h0l-0.1,0.1l0,0c0,0,0,0,0,0
	c0,0,0,0-0.1,0c0,0,0,0-0.1,0c0,0,0,0,0,0c0,0,0,0,0,0c0,0,0,0,0,0v0c0,0,0,0,0,0c0,0,0,0,0.1,0h0.1c0,0,0,0,0.1,0c0,0,0,0,0.1,0
	c0,0,0,0,0,0.1c0,0,0,0.1,0,0.1s0,0.1,0,0.1c0,0,0,0-0.1,0.1c0,0,0,0-0.1,0c0,0-0.1,0-0.1,0c0,0-0.1,0-0.1,0c0,0,0,0-0.1,0
	c0,0,0,0-0.1,0C-107.6,296-107.7,295.9-107.6,295.9L-107.6,295.9L-107.6,295.9z"/>
<path class="st5" d="M-106.9,295.4h-0.2v-0.1h0.6v0.1h-0.2v0.6h-0.1V295.4L-106.9,295.4z"/>
<path class="st5" d="M-105.6,295.9C-105.6,295.9-105.6,295.9-105.6,295.9c0,0-0.1,0.1-0.1,0.1c0,0,0,0-0.1,0c0,0-0.1,0-0.1,0
	c0,0-0.1,0-0.1,0c0,0-0.1,0-0.1-0.1c0,0-0.1-0.1-0.1-0.1c0,0,0-0.1,0-0.1c0-0.1,0-0.1,0-0.1c0,0,0-0.1,0.1-0.1c0,0,0.1-0.1,0.1-0.1
	c0,0,0.1,0,0.1,0c0,0,0.1,0,0.1,0c0,0,0.1,0,0.1,0c0,0,0,0,0.1,0c0,0,0,0,0,0l-0.1,0.1v0c0,0-0.1,0-0.1,0c0,0,0,0-0.1,0
	c0,0,0,0-0.1,0c0,0-0.1,0-0.1,0c0,0-0.1,0-0.1,0.1c0,0,0,0.1,0,0.1c0,0,0,0.1,0,0.1c0,0,0,0.1,0,0.1c0,0,0,0.1,0,0.1
	c0,0,0,0,0.1,0.1c0,0,0.1,0,0.1,0c0,0,0.1,0,0.1,0c0,0,0,0,0.1,0C-105.8,295.9-105.7,295.9-105.6,295.9L-105.6,295.9L-105.6,295.9z"
	/>
<path class="st5" d="M-105.5,295.3h0.1v0.3h0.4v-0.3h0.1v0.7h-0.1v-0.3h-0.4v0.3h-0.1V295.3z"/>
<path class="st5" d="M-104.6,295.3h0.1l0.3,0.7h-0.1l-0.1-0.2h-0.3l-0.1,0.2h-0.1L-104.6,295.3L-104.6,295.3z M-104.5,295.7
	l-0.1-0.3l-0.1,0.3H-104.5z"/>
<path class="st5" d="M-104.1,295.3h0.2c0,0,0.1,0,0.1,0c0,0,0.1,0,0.1,0c0,0,0,0,0,0.1c0,0,0,0,0,0.1c0,0,0,0.1,0,0.1
	c0,0-0.1,0.1-0.1,0.1l0.2,0.3h-0.1l-0.1-0.3h-0.1v0.3h-0.1L-104.1,295.3L-104.1,295.3z M-103.9,295.7c0,0,0.1,0,0.1,0c0,0,0,0,0-0.1
	c0,0,0-0.1,0-0.1c0,0-0.1,0-0.1,0h-0.1v0.2H-103.9L-103.9,295.7z"/>
<path class="st5" d="M-103.2,295.7h0.2v0.3l0,0c0,0,0,0-0.1,0c0,0,0,0-0.1,0c0,0-0.1,0-0.1,0c-0.1,0-0.1,0-0.1,0c0,0-0.1,0-0.1-0.1
	c0,0-0.1-0.1-0.1-0.1c0,0,0-0.1,0-0.1c0-0.1,0-0.1,0-0.1c0,0,0-0.1,0.1-0.1c0,0,0.1-0.1,0.1-0.1c0,0,0.1,0,0.1,0c0,0,0.1,0,0.1,0
	c0,0,0.1,0,0.1,0c0,0,0,0,0.1,0l0,0l-0.1,0.1v0c0,0-0.1,0-0.1,0c0,0,0,0-0.1,0c0,0,0,0-0.1,0c0,0-0.1,0-0.1,0c0,0-0.1,0-0.1,0.1
	c0,0,0,0.1,0,0.1c0,0,0,0.1,0,0.1c0,0,0,0.1,0,0.1c0,0,0,0.1,0.1,0.1c0,0,0,0,0.1,0.1c0,0,0.1,0,0.1,0c0,0,0.1,0,0.1,0
	c0,0,0.1,0,0.1,0v-0.1L-103.2,295.7L-103.2,295.7L-103.2,295.7z"/>
<path class="st5" d="M-102.8,295.3h0.1v0.7h-0.1V295.3z"/>
<path class="st5" d="M-102.6,295.3h0.1l0.4,0.5v-0.5h0.1v0.7h-0.1l-0.4-0.5v0.5h-0.1V295.3z"/>
<path class="st5" d="M-101.5,295.7h0.2v0.3l0,0c0,0,0,0-0.1,0c0,0,0,0-0.1,0c0,0-0.1,0-0.1,0c-0.1,0-0.1,0-0.1,0c0,0-0.1,0-0.1-0.1
	c0,0-0.1-0.1-0.1-0.1c0,0,0-0.1,0-0.1c0-0.1,0-0.1,0-0.1c0,0,0-0.1,0.1-0.1c0,0,0.1-0.1,0.1-0.1c0,0,0.1,0,0.1,0c0,0,0.1,0,0.1,0
	c0,0,0.1,0,0.1,0c0,0,0,0,0.1,0l0,0l-0.1,0.1v0c0,0-0.1,0-0.1,0c0,0,0,0-0.1,0c0,0,0,0-0.1,0c0,0-0.1,0-0.1,0c0,0-0.1,0-0.1,0.1
	c0,0,0,0.1,0,0.1c0,0,0,0.1,0,0.1c0,0,0,0.1,0,0.1c0,0,0,0.1,0.1,0.1c0,0,0,0,0.1,0.1c0,0,0.1,0,0.1,0c0,0,0.1,0,0.1,0
	c0,0,0.1,0,0.1,0v-0.1L-101.5,295.7L-101.5,295.7L-101.5,295.7z"/>
<path class="st5" d="M-105.2,291.9l-0.5,1.5c0,0-0.1,0.1-0.1,0l-0.5-1.5c0,0,0,0-0.1,0h-2.3c0,0-0.1,0-0.1,0.1v2.3
	c0,0,0,0.1,0.1,0.1h1.6c0,0,0.1,0,0.1-0.1v-0.4c0,0,0-0.1-0.1-0.1h-1.1c0,0-0.1,0-0.1-0.1v-0.4c0,0,0-0.1,0.1-0.1h0.7
	c0,0,0.1,0,0.1-0.1v-0.3c0,0,0-0.1-0.1-0.1h-0.7c0,0-0.1,0-0.1-0.1v-0.3c0,0,0-0.1,0.1-0.1h1.3c0,0,0,0,0.1,0l0.7,1.9c0,0,0,0,0.1,0
	h0.5c0,0,0,0,0.1,0l0.8-2.3c0,0,0-0.1-0.1-0.1L-105.2,291.9C-105.1,291.8-105.2,291.8-105.2,291.9L-105.2,291.9z"/>
<path class="st6" d="M-104.6,294.5C-104.6,294.5-104.5,294.5-104.6,294.5c0.1,0,0.2,0,0.2,0c0.1,0,0.2,0,0.2,0c0.1,0,0.2,0,0.3-0.1
	c0.1-0.1,0.1-0.2,0.1-0.3c0,0-0.1-0.1-0.1-0.1c-0.1,0.1-0.2,0.1-0.3,0.1c-0.1,0-0.2,0-0.3-0.1c-0.1,0-0.2-0.1-0.2-0.2
	c-0.1-0.1-0.1-0.2-0.1-0.3c0-0.1-0.1-0.2-0.1-0.3c0-0.1,0-0.3,0.1-0.4c0-0.1,0.1-0.2,0.2-0.3c0.1-0.1,0.2-0.1,0.3-0.2
	c0.1,0,0.2-0.1,0.4-0.1s0.3,0,0.4,0c0.1,0,0.2,0,0.3,0.1c0,0,0,0,0,0.1v1.5c0,0.3-0.1,0.5-0.2,0.6c-0.2,0.1-0.4,0.2-0.6,0.2
	c-0.2,0-0.3,0-0.4,0c-0.1,0-0.2-0.1-0.3-0.1c0,0,0-0.1,0-0.1L-104.6,294.5L-104.6,294.5z M-103.7,293
	C-103.7,293-103.7,293-103.7,293l-0.1-0.1c0,0-0.1,0-0.1,0c-0.1,0-0.1,0-0.2,0c-0.1,0-0.1,0.1-0.1,0.1c0,0-0.1,0.1-0.1,0.1
	c0,0.1,0,0.1,0,0.2c0,0.1,0,0.2,0.1,0.3c0.1,0.1,0.1,0.1,0.3,0.1c0.1,0,0.2,0,0.2-0.1c0.1-0.1,0.1-0.1,0.1-0.2L-103.7,293
	L-103.7,293z"/>
<path class="st6" d="M-103.1,293.4c0-0.1,0-0.2,0.1-0.3c0-0.1,0.1-0.2,0.2-0.3c0.1-0.1,0.2-0.1,0.3-0.2c0.1,0,0.2-0.1,0.4-0.1
	c0.1,0,0.3,0,0.4,0.1c0.1,0,0.2,0.1,0.3,0.2c0.1,0.1,0.1,0.2,0.2,0.3c0,0.1,0.1,0.2,0.1,0.3c0,0.1,0,0.2-0.1,0.3
	c0,0.1-0.1,0.2-0.2,0.3c-0.1,0.1-0.2,0.1-0.3,0.2c-0.1,0-0.2,0.1-0.4,0.1c-0.1,0-0.3,0-0.4-0.1c-0.1,0-0.2-0.1-0.3-0.2
	c-0.1-0.1-0.1-0.2-0.2-0.3C-103,293.6-103.1,293.5-103.1,293.4z M-102.1,293.9c0,0,0.1,0,0.2,0c0.1,0,0.1-0.1,0.1-0.1
	c0,0,0.1-0.1,0.1-0.1c0-0.1,0-0.1,0-0.2s0-0.1,0-0.2c0-0.1,0-0.1-0.1-0.1c0,0-0.1-0.1-0.1-0.1c0,0-0.1,0-0.2,0c-0.1,0-0.1,0-0.2,0
	c-0.1,0-0.1,0.1-0.1,0.1c0,0-0.1,0.1-0.1,0.1c0,0.1,0,0.1,0,0.2s0,0.1,0,0.2c0,0.1,0,0.1,0.1,0.1c0,0,0.1,0.1,0.1,0.1
	C-102.3,293.8-102.2,293.9-102.1,293.9z"/>
<path class="st6" d="M-101.5,292.6C-101.5,292.6-101.5,292.6-101.5,292.6C-101.5,292.6-101.5,292.6-101.5,292.6c0-0.1,0-0.1,0.1-0.1
	c0,0,0,0,0,0c0,0,0,0,0,0c0,0,0,0,0,0c0,0,0,0,0,0c0,0,0,0,0,0s0,0,0,0c0,0,0,0,0,0c0,0,0,0,0,0c0,0,0,0,0,0c0,0,0,0,0,0
	C-101.4,292.7-101.4,292.7-101.5,292.6C-101.4,292.7-101.4,292.7-101.5,292.6C-101.5,292.6-101.5,292.6-101.5,292.6z M-101.4,292.7
	C-101.4,292.7-101.3,292.7-101.4,292.7L-101.4,292.7L-101.4,292.7C-101.3,292.7-101.3,292.7-101.4,292.7c0.1-0.1,0.1-0.1,0.1-0.1v0
	h-0.1c0,0,0,0,0,0h0v0C-101.4,292.6-101.4,292.6-101.4,292.7C-101.4,292.7-101.4,292.7-101.4,292.7L-101.4,292.7L-101.4,292.7z
	 M-101.4,292.6L-101.4,292.6L-101.4,292.6L-101.4,292.6L-101.4,292.6l0,0.1L-101.4,292.6L-101.4,292.6v0.1V292.6L-101.4,292.6z
	 M-101.4,292.6L-101.4,292.6C-101.3,292.6-101.3,292.6-101.4,292.6L-101.4,292.6L-101.4,292.6L-101.4,292.6z"/>
<path class="st3" d="M-99.6,303.5h-11v7.7h11V303.5z"/>
<path class="st5" d="M-101.4,304.3h-1.8c-0.2,0-0.4,0.2-0.4,0.4v5.1c0,0.2,0.2,0.4,0.4,0.4h1.8c0.2,0,0.4-0.2,0.4-0.4v-5.1
	C-101,304.5-101.2,304.3-101.4,304.3z"/>
<path class="st5" d="M-107,304.3h-1.8c-0.2,0-0.4,0.2-0.4,0.4v5.1c0,0.2,0.2,0.4,0.4,0.4h1.8c0.2,0,0.4-0.2,0.4-0.4v-5.1
	C-106.6,304.5-106.8,304.3-107,304.3z"/>
<path class="st6" d="M-99.1,319.6c-1.7,0-3.6-0.8-3.6-2.6v-9.7h0.8v9.7c0,1.2,1.5,1.8,2.8,1.8c1.4,0,2.8-0.6,2.8-1.8v-31.6
	c0-0.7-0.2-1.3-0.7-1.7c-1-0.9-2.6-0.8-2.6-0.8l-0.1-0.8c0,0,2-0.1,3.2,1c0.6,0.6,0.9,1.4,0.9,2.3V317
	C-95.5,318.7-97.3,319.5-99.1,319.6L-99.1,319.6z"/>
<path class="st4" d="M-112.3,274v11h14.5v-12.4h-14.5V274L-112.3,274z"/>
<path class="st3" d="M-99.6,278.1h-11v11.7h11V278.1z"/>
<path class="st7" d="M-100.7,279h-8.8v10h8.8V279z"/>
<path class="st8" d="M-114.8,285.7c0,0-5.6,0.4-4.8,18.4c0.8,17.9-5.6,15.1-11,15.1"/>
<path class="st3" d="M-100.8,328.3h-14.2v4.7h14.2V328.3z"/>
<path class="st4" d="M-99.7,331.1H-116v1.9h16.3V331.1z"/>
<path class="st4" d="M-115.5,282v47.8h15.2v-54h-15.2V282L-115.5,282z"/>
<path class="st5" d="M-108.7,304.7h-4v2.3h4V304.7z"/>
<path class="st5" d="M-111.7,299.7h0.4v0.1h-0.3v0.2h0.3v0.1h-0.3v0.3h-0.1V299.7L-111.7,299.7z"/>
<path class="st5" d="M-111,299.7h0.1l0.3,0.7h-0.1l-0.1-0.2h-0.3l-0.1,0.2h-0.1L-111,299.7L-111,299.7z M-110.8,300.1l-0.1-0.3
	l-0.1,0.3H-110.8L-110.8,300.1z"/>
<path class="st5" d="M-110.5,300.2L-110.5,300.2C-110.5,300.2-110.4,300.3-110.5,300.2c0.1,0.1,0.1,0.1,0.1,0.1c0,0,0,0,0.1,0
	c0,0,0.1,0,0.1,0c0,0,0,0,0-0.1c0,0,0-0.1,0-0.1c0,0-0.1,0-0.1,0c0,0-0.1,0-0.1,0c0,0,0,0-0.1,0c0,0,0,0,0-0.1c0,0,0,0,0-0.1
	c0,0,0-0.1,0-0.1s0,0,0-0.1c0,0,0,0,0.1,0c0,0,0.1,0,0.1,0c0,0,0.1,0,0.1,0c0,0,0,0,0.1,0c0,0,0,0,0,0h0l-0.1,0.1l0,0c0,0,0,0,0,0
	c0,0,0,0-0.1,0c0,0,0,0-0.1,0c0,0,0,0,0,0c0,0,0,0,0,0c0,0,0,0,0,0v0c0,0,0,0,0,0c0,0,0,0,0.1,0h0.1c0,0,0.1,0,0.1,0c0,0,0,0,0.1,0
	c0,0,0,0,0,0.1c0,0,0,0.1,0,0.1s0,0.1,0,0.1c0,0,0,0-0.1,0.1c0,0,0,0-0.1,0c0,0-0.1,0-0.1,0c0,0-0.1,0-0.1,0c0,0-0.1,0-0.1,0
	c0,0,0,0-0.1,0c0,0,0,0,0,0L-110.5,300.2L-110.5,300.2z"/>
<path class="st5" d="M-109.7,299.8h-0.3v-0.1h0.6v0.1H-109.7l0.1,0.6h-0.1L-109.7,299.8L-109.7,299.8z"/>
<path class="st5" d="M-108.5,300.3C-108.5,300.3-108.5,300.3-108.5,300.3c0,0-0.1,0.1-0.1,0.1s-0.1,0-0.1,0c0,0-0.1,0-0.1,0
	c-0.1,0-0.1,0-0.1,0c0,0-0.1,0-0.1-0.1c0,0-0.1-0.1-0.1-0.1c0,0,0-0.1,0-0.1c0,0,0-0.1,0-0.1c0,0,0-0.1,0.1-0.1c0,0,0.1-0.1,0.1-0.1
	c0,0,0.1,0,0.1,0c0,0,0.1,0,0.1,0c0,0,0.1,0,0.1,0c0,0,0,0,0.1,0c0,0,0,0,0,0l-0.1,0.1l0,0c0,0,0,0,0,0c0,0,0,0-0.1,0c0,0,0,0-0.1,0
	c0,0-0.1,0-0.1,0c0,0-0.1,0-0.1,0.1c0,0,0,0.1,0,0.1c0,0,0,0.1,0,0.1c0,0,0,0.1,0,0.1c0,0,0,0.1,0,0.1c0,0,0,0,0.1,0.1
	c0,0,0.1,0,0.1,0c0,0,0.1,0,0.1,0c0,0,0,0,0.1,0c0,0,0,0,0,0h0L-108.5,300.3L-108.5,300.3z"/>
<path class="st5" d="M-108.3,299.7h0.1v0.3h0.4v-0.3h0.1v0.7h-0.1v-0.3h-0.4v0.3h-0.1V299.7z"/>
<path class="st5" d="M-107.4,299.7h0.1l0.3,0.7h-0.1l-0.1-0.2h-0.3l-0.1,0.2h-0.1L-107.4,299.7L-107.4,299.7z M-107.2,300.1
	l-0.1-0.3l-0.1,0.3H-107.2L-107.2,300.1z"/>
<path class="st5" d="M-106.9,299.7h0.2c0,0,0.1,0,0.1,0c0,0,0.1,0,0.1,0c0,0,0,0,0,0.1s0,0,0,0.1c0,0,0,0.1,0,0.1
	c0,0-0.1,0.1-0.1,0.1l0.2,0.3h-0.1l-0.2-0.3h-0.1v0.3h-0.1L-106.9,299.7L-106.9,299.7z M-106.7,300c0,0,0.1,0,0.1,0c0,0,0-0.1,0-0.1
	c0,0,0-0.1,0-0.1c0,0-0.1,0-0.1,0h-0.1v0.2L-106.7,300L-106.7,300z"/>
<path class="st5" d="M-105.9,300h0.2v0.3c0,0,0,0,0,0c0,0,0,0-0.1,0c0,0,0,0-0.1,0c0,0-0.1,0-0.1,0c-0.1,0-0.1,0-0.1,0
	c0,0-0.1,0-0.1-0.1c0,0-0.1-0.1-0.1-0.1c0,0,0-0.1,0-0.1c0,0,0-0.1,0-0.1c0,0,0-0.1,0.1-0.1c0,0,0.1-0.1,0.1-0.1c0,0,0.1,0,0.1,0
	c0,0,0.1,0,0.1,0s0.1,0,0.1,0c0,0,0,0,0.1,0c0,0,0,0,0,0l-0.1,0.1l0,0c0,0,0,0,0,0c0,0,0,0-0.1,0c0,0,0,0-0.1,0c0,0-0.1,0-0.1,0
	c0,0-0.1,0-0.1,0.1s0,0.1,0,0.1s0,0.1,0,0.1c0,0,0,0.1,0,0.1c0,0,0,0.1,0.1,0.1c0,0,0,0,0.1,0.1c0,0,0.1,0,0.1,0c0,0,0.1,0,0.1,0
	s0.1,0,0.1,0v-0.1h-0.2L-105.9,300L-105.9,300z"/>
<path class="st5" d="M-105.5,299.7h0.1v0.7h-0.1V299.7z"/>
<path class="st5" d="M-105.2,299.7h0.1l0.4,0.6v-0.6h0.1v0.7h-0.1l-0.4-0.6v0.6h-0.1V299.7z"/>
<path class="st5" d="M-104.1,300h0.2v0.3c0,0,0,0,0,0c0,0,0,0-0.1,0c0,0,0,0-0.1,0c0,0-0.1,0-0.1,0c-0.1,0-0.1,0-0.1,0
	c0,0-0.1,0-0.1-0.1c0,0-0.1-0.1-0.1-0.1c0,0,0-0.1,0-0.1c0,0,0-0.1,0-0.1c0,0,0-0.1,0.1-0.1c0,0,0.1-0.1,0.1-0.1c0,0,0.1,0,0.1,0
	c0,0,0.1,0,0.1,0c0,0,0.1,0,0.1,0c0,0,0,0,0.1,0c0,0,0,0,0,0l-0.1,0.1l0,0c0,0,0,0,0,0c0,0,0,0-0.1,0c0,0,0,0-0.1,0c0,0-0.1,0-0.1,0
	c0,0-0.1,0-0.1,0.1s0,0.1,0,0.1s0,0.1,0,0.1c0,0,0,0.1,0,0.1c0,0,0,0.1,0.1,0.1c0,0,0,0,0.1,0.1c0,0,0.1,0,0.1,0c0,0,0.1,0,0.1,0
	c0,0,0.1,0,0.1,0v-0.1h-0.2L-104.1,300L-104.1,300z"/>
<path class="st5" d="M-108,296.1l-0.5,1.6c0,0-0.1,0.1-0.1,0l-0.5-1.6c0,0,0,0-0.1,0h-2.4c0,0-0.1,0-0.1,0.1v2.4c0,0,0,0.1,0.1,0.1
	h1.7c0,0,0.1,0,0.1-0.1v-0.4c0,0,0-0.1-0.1-0.1h-1.1c0,0-0.1,0-0.1-0.1v-0.4c0,0,0-0.1,0.1-0.1h0.8c0,0,0.1,0,0.1-0.1v-0.3
	c0,0,0-0.1-0.1-0.1h-0.8c0,0-0.1,0-0.1-0.1v-0.4c0,0,0-0.1,0.1-0.1h1.4c0,0,0.1,0,0.1,0l0.7,1.9c0,0,0,0,0.1,0h0.5c0,0,0.1,0,0.1,0
	l0.9-2.4c0,0,0-0.1-0.1-0.1H-108C-108,296.1-108,296.1-108,296.1L-108,296.1z"/>
<path class="st6" d="M-107.4,298.8C-107.4,298.8-107.3,298.8-107.4,298.8c0.1,0,0.2,0,0.2,0c0.1,0,0.2,0,0.3,0c0.1,0,0.2,0,0.3-0.1
	c0.1-0.1,0.1-0.2,0.1-0.3c0,0-0.1-0.1-0.1-0.1c-0.1,0.1-0.2,0.1-0.4,0.1c-0.1,0-0.2,0-0.3-0.1c-0.1,0-0.2-0.1-0.2-0.2
	c-0.1-0.1-0.1-0.2-0.2-0.3c0-0.1-0.1-0.2-0.1-0.3c0-0.1,0-0.3,0.1-0.4c0.1-0.1,0.1-0.2,0.2-0.3c0.1-0.1,0.2-0.1,0.3-0.2
	c0.1,0,0.3-0.1,0.4-0.1s0.3,0,0.4,0c0.1,0,0.2,0,0.3,0.1c0,0,0,0,0,0.1v1.6c0,0.3-0.1,0.5-0.2,0.6c-0.2,0.1-0.4,0.2-0.7,0.2
	c-0.2,0-0.3,0-0.4,0c-0.1,0-0.2-0.1-0.3-0.1c0,0,0-0.1,0-0.1L-107.4,298.8L-107.4,298.8z M-106.4,297.3
	C-106.4,297.3-106.4,297.2-106.4,297.3l-0.1-0.1c0,0-0.1,0-0.1,0c-0.1,0-0.1,0-0.2,0c-0.1,0-0.1,0.1-0.1,0.1c0,0-0.1,0.1-0.1,0.2
	c0,0.1,0,0.1,0,0.2c0,0.1,0,0.2,0.1,0.3c0.1,0.1,0.2,0.1,0.3,0.1c0.1,0,0.2,0,0.3-0.1c0.1-0.1,0.1-0.1,0.1-0.3L-106.4,297.3
	L-106.4,297.3z"/>
<path class="st6" d="M-105.8,297.6c0-0.1,0-0.3,0.1-0.4c0-0.1,0.1-0.2,0.2-0.3c0.1-0.1,0.2-0.2,0.3-0.2c0.1,0,0.2-0.1,0.4-0.1
	c0.1,0,0.3,0,0.4,0.1c0.1,0,0.2,0.1,0.3,0.2c0.1,0.1,0.1,0.2,0.2,0.3c0,0.1,0.1,0.2,0.1,0.4c0,0.1,0,0.3-0.1,0.4
	c0,0.1-0.1,0.2-0.2,0.3c-0.1,0.1-0.2,0.2-0.3,0.2c-0.1,0-0.2,0.1-0.4,0.1c-0.1,0-0.3,0-0.4-0.1c-0.1,0-0.2-0.1-0.3-0.2
	c-0.1-0.1-0.1-0.2-0.2-0.3C-105.7,297.9-105.8,297.8-105.8,297.6z M-104.8,298.1c0,0,0.1,0,0.2,0c0.1,0,0.1-0.1,0.1-0.1
	c0,0,0.1-0.1,0.1-0.2c0-0.1,0-0.1,0-0.2c0-0.1,0-0.1,0-0.2c0-0.1,0-0.1-0.1-0.1c0,0-0.1-0.1-0.1-0.1c-0.1,0-0.1,0-0.2,0
	c-0.1,0-0.1,0-0.2,0c-0.1,0-0.1,0.1-0.1,0.1c0,0-0.1,0.1-0.1,0.1c0,0.1,0,0.1,0,0.2c0,0.1,0,0.1,0,0.2c0,0.1,0,0.1,0.1,0.2
	c0,0,0.1,0.1,0.1,0.1C-104.9,298.1-104.9,298.1-104.8,298.1z"/>
<path class="st6" d="M-104.1,296.8C-104.1,296.8-104.1,296.8-104.1,296.8C-104.1,296.8-104.1,296.8-104.1,296.8
	C-104,296.7-104,296.7-104.1,296.8c0.1-0.1,0.1-0.1,0.1-0.1s0,0,0,0c0,0,0,0,0,0c0,0,0,0,0,0c0,0,0,0,0,0c0,0,0,0,0,0c0,0,0,0,0,0
	c0,0,0,0,0,0c0,0,0,0,0,0s0,0,0,0C-104,296.9-104,296.9-104.1,296.8C-104,296.9-104,296.9-104.1,296.8
	C-104.1,296.8-104.1,296.8-104.1,296.8z M-104,296.9C-104,296.9-103.9,296.9-104,296.9C-103.9,296.9-103.9,296.9-104,296.9
	C-103.9,296.9-103.9,296.9-104,296.9c0.1-0.1,0.1-0.1,0.1-0.1c0,0,0,0,0,0c0,0,0,0,0,0c0,0,0,0,0,0c0,0,0,0,0,0s0,0,0,0c0,0,0,0,0,0
	c0,0,0,0,0,0c0,0,0,0,0,0C-104,296.8-104,296.8-104,296.9C-104,296.9-104,296.9-104,296.9C-104,296.9-104,296.9-104,296.9
	C-104,296.9-104,296.9-104,296.9z M-104,296.8L-104,296.8L-104,296.8C-103.9,296.8-103.9,296.8-104,296.8l0.1,0.1L-104,296.8
	L-104,296.8v0.1V296.8L-104,296.8z M-104,296.8L-104,296.8C-103.9,296.8-103.9,296.8-104,296.8L-104,296.8L-104,296.8L-104,296.8z"
	/>
<path class="st3" d="M-102.1,308.2h-11.5v8.1h11.5V308.2z"/>
<path class="st5" d="M-104,309.1h-1.9c-0.2,0-0.4,0.2-0.4,0.4v5.3c0,0.2,0.2,0.4,0.4,0.4h1.9c0.2,0,0.4-0.2,0.4-0.4v-5.3
	C-103.6,309.3-103.8,309.1-104,309.1z"/>
<path class="st5" d="M-109.9,309.1h-1.9c-0.2,0-0.4,0.2-0.4,0.4v5.3c0,0.2,0.2,0.4,0.4,0.4h1.9c0.2,0,0.4-0.2,0.4-0.4v-5.3
	C-109.5,309.3-109.7,309.1-109.9,309.1z"/>
<path class="st6" d="M-101.6,325c-1.8,0-3.8-0.8-3.8-2.7v-10.1h0.9v10.1c0,1.3,1.5,1.9,3,1.9c1.4,0,3-0.6,3-1.9v-33.1
	c0-0.8-0.2-1.4-0.7-1.8c-1-0.9-2.7-0.8-2.8-0.8l-0.1-0.8c0,0,2.1-0.1,3.4,1c0.6,0.6,1,1.4,1,2.4v33.1
	C-97.9,324.2-99.8,325-101.6,325L-101.6,325z"/>
<path class="st4" d="M-115.5,277.3v11.5h15.2v-13h-15.2V277.3L-115.5,277.3z"/>
<path class="st3" d="M-102.1,281.6h-11.5v12.2h11.5V281.6z"/>
<path class="st7" d="M-103.3,282.5h-9.2V293h9.2V282.5z"/>
<path class="st6" d="M-169.6,221h-29.7v73.1h29.7V221z"/>
<path class="st7" d="M-173.1,260.6h-3.1v3.8h3.1V260.6z"/>
<path class="st7" d="M-182.1,252.4h-3.1v3.7h3.1V252.4z"/>
<path class="st7" d="M-182.1,260.6h-3.1v3.8h3.1V260.6z"/>
<path class="st7" d="M-191.1,252.4h-3.1v3.7h3.1V252.4z"/>
<path class="st7" d="M-191.1,260.6h-3.1v3.8h3.1V260.6z"/>
<path class="st7" d="M-173.1,269.1h-3.1v3.7h3.1V269.1z"/>
<path class="st7" d="M-182.1,269.1h-3.1v3.7h3.1V269.1z"/>
<path class="st7" d="M-182.1,277.4h-3.1v3.7h3.1V277.4z"/>
<path class="st7" d="M-191.1,269.1h-3.1v3.7h3.1V269.1z"/>
<path class="st4" d="M-149.2,252.7h-28.2v41.5h28.2V252.7z"/>
<path class="st9" d="M-169.3,255.9h-6v1.6h6V255.9z"/>
<path class="st9" d="M-156.1,255.9h-6.1v1.6h6.1V255.9z"/>
<path class="st9" d="M-169.3,260.6h-6v1.6h6V260.6z"/>
<path class="st9" d="M-156.1,260.6h-6.1v1.6h6.1V260.6z"/>
<path class="st9" d="M-169.3,265.3h-6v1.6h6V265.3z"/>
<path class="st9" d="M-156.1,265.3h-6.1v1.6h6.1V265.3z"/>
<path class="st9" d="M-169.3,270h-6v1.6h6V270z"/>
<path class="st9" d="M-156.1,270h-6.1v1.6h6.1V270z"/>
<path class="st9" d="M-169.3,274.6h-6v1.6h6V274.6z"/>
<path class="st9" d="M-156.1,274.6h-6.1v1.6h6.1V274.6z"/>
<path class="st9" d="M-169.3,279.3h-6v1.6h6V279.3z"/>
<path class="st9" d="M-156.1,279.3h-6.1v1.6h6.1V279.3z"/>
<path class="st9" d="M-169.3,283.9h-6v1.6h6V283.9z"/>
<path class="st9" d="M-156.1,283.9h-6.1v1.6h6.1V283.9z"/>
<path class="st9" d="M-169.3,288.6h-6v1.6h6V288.6z"/>
<path class="st9" d="M-156.1,288.6h-6.1v1.6h6.1V288.6z"/>
<path class="st6" d="M-128.6,225.3h-25.6v68.9h25.6V225.3z"/>
<path class="st9" d="M-131.8,273.8h-19.1v1.2h19.1V273.8z"/>
<path class="st9" d="M-131.8,277.3h-19.1v1.2h19.1V277.3z"/>
<path class="st9" d="M-131.8,280.8h-19.1v1.2h19.1V280.8z"/>
<path class="st9" d="M-131.8,284.3h-19.1v1.2h19.1V284.3z"/>
<path class="st4" d="M-145,230.7h-6v1.2h6V230.7z"/>
<path class="st4" d="M-131.8,230.7h-6.1v1.2h6.1V230.7z"/>
<path class="st4" d="M-145,234.2h-6v1.2h6V234.2z"/>
<path class="st4" d="M-131.8,234.2h-6.1v1.2h6.1V234.2z"/>
<path class="st4" d="M-145,237.7h-6v1.2h6V237.7z"/>
<path class="st4" d="M-131.8,237.7h-6.1v1.2h6.1V237.7z"/>
<path class="st4" d="M-145,241.1h-6v1.2h6V241.1z"/>
<path class="st4" d="M-131.8,241.1h-6.1v1.2h6.1V241.1z"/>
<path class="st4" d="M-145,244.6h-6v1.2h6V244.6z"/>
<path class="st4" d="M-131.8,244.6h-6.1v1.2h6.1V244.6z"/>
<path class="st4" d="M-145,248.1h-6v1.2h6V248.1z"/>
<path class="st4" d="M-131.8,248.1h-6.1v1.2h6.1V248.1z"/>
<path class="st4" d="M-145,251.5h-6v1.2h6V251.5z"/>
<path class="st4" d="M-131.8,251.5h-6.1v1.2h6.1V251.5z"/>
<path class="st4" d="M-145,255h-6v1.2h6V255z"/>
<path class="st4" d="M-131.8,255h-6.1v1.2h6.1V255z"/>
<path class="st7" d="M-173.1,226.7h-3.1v3.7h3.1V226.7z"/>
<path class="st7" d="M-173.1,234.9h-3.1v3.8h3.1V234.9z"/>
<path class="st7" d="M-182.1,226.7h-3.1v3.7h3.1V226.7z"/>
<path class="st7" d="M-182.1,234.9h-3.1v3.8h3.1V234.9z"/>
<path class="st7" d="M-191.1,226.7h-3.1v3.7h3.1V226.7z"/>
<path class="st7" d="M-191.1,234.9h-3.1v3.8h3.1V234.9z"/>
<path class="st7" d="M-173.1,243.4h-3.1v3.7h3.1V243.4z"/>
<path class="st7" d="M-182.1,243.4h-3.1v3.7h3.1V243.4z"/>
<path class="st7" d="M-191.1,243.4h-3.1v3.7h3.1V243.4z"/>
<path class="st9" d="M-127.2,294.9c-0.2-0.5-0.5-0.9-0.9-1.2c-1.7-1.5-5.2-2.4-9-3.2c-0.4-0.1-0.8-0.2-1.3-0.2
	c-1.9-0.3-3.8-0.6-5.6-1c-3.5-0.6-8.5-3.1-12.1-4.9c-4.8-2.4-20.3-2.3-25.3-1c-3.2,0.9-6.6,2-10,3.1c-2.5,0.8-5,1.7-7.3,2.6
	c-1.2,0.4-1.9,1.3-2.1,2.6c-0.3,1.3-0.5,2.7-0.6,4c-0.1,1.2-0.1,2.4,0,3.5c3.7-1.3,7.6-2.5,11.2-3.6c0.5-0.2,1.1-0.4,1.7-0.4
	c6.1-1.2,21.8-1.2,26.8,1.2c4,2,9.4,4.7,13.2,5.4c0.7,0.1,1.5,0.3,2.3,0.4c0-0.1,0-0.3,0-0.4c0-3.7,3-6.7,6.7-6.7s6.7,3,6.7,6.7
	c0,1.2-0.3,2.3-0.9,3.3c0.4,0.2,0.8,0.3,1.1,0.5l4.1-0.3C-125.3,304.8-126.3,296.9-127.2,294.9L-127.2,294.9z"/>
<path class="st9" d="M-139.5,296.4c-3,0-5.4,2.4-5.4,5.4c0,0.2,0,0.4,0,0.6c3.6,0.6,7.2,1.3,9.9,2.2c0.5-0.8,0.8-1.8,0.8-2.8
	C-134.1,298.9-136.5,296.4-139.5,296.4L-139.5,296.4z"/>
<path class="st5" d="M-133.4,310.9l1.5-0.1c-0.3-0.2-0.7-0.4-1.1-0.5C-133.1,310.5-133.2,310.7-133.4,310.9L-133.4,310.9z"/>
<path class="st6" d="M-130.2,309.6c-0.2-0.6-0.7-1.1-1.2-1.5c-1.7-1.3-4-2-6.1-2.5c-2.5-0.6-4.9-1-7.4-1.5c-0.4-0.1-0.9-0.1-1.3-0.2
	c-0.8-0.1-1.6-0.3-2.3-0.4c-3.8-0.7-9.2-3.4-13.2-5.4c-5-2.5-20.7-2.5-26.8-1.2c-0.3,0.1-0.5,0.1-0.7,0.2c-0.3,0.1-0.6,0.2-1,0.3
	c-3.6,1-7.5,2.3-11.2,3.6c-2.3,0.8-4.6,1.6-6.6,2.4c-1.3,0.5-2.1,1.4-2.3,2.9c-0.3,1.4-0.5,2.9-0.6,4.3c-0.1,0.8-0.1,1.7-0.1,2.5
	c3.8-1.3,7.7-2.5,11.3-3.5c5.7-1.5,23.2-1.6,28.7,1.1c4.1,2,9.8,4.9,13.8,5.6c2.1,0.4,4.3,0.7,6.4,1.1v-0.1c0-4,3.3-7.3,7.3-7.3
	c4,0,7.3,3.2,7.3,7.3c0,1.6-0.5,3-1.4,4.3l6.1-0.4C-128.2,320.5-129.4,311.8-130.2,309.6L-130.2,309.6z"/>
<path class="st6" d="M-138.8,320.6c0.7-1,1.1-2.1,1.1-3.4c0-3.2-2.6-5.8-5.9-5.8c-3.2,0-5.9,2.6-5.9,5.8c0,0.1,0,0.2,0,0.3
	c4.4,0.8,8.3,1.9,10.2,3.6C-139.1,320.9-139,320.8-138.8,320.6L-138.8,320.6z"/>
<path class="st10" d="M-138.2,324c-0.2-0.5-0.6-1-1.1-1.4c-1.9-1.7-5.9-2.7-10.2-3.6c-0.5-0.1-1-0.2-1.4-0.3
	c-2.1-0.4-4.3-0.7-6.4-1.1c-4-0.7-9.6-3.5-13.8-5.6c-5.5-2.7-23.1-2.6-28.7-1.1c-3.6,1-7.5,2.2-11.3,3.5c-2.9,1-5.7,2-8.3,2.9
	c-1.4,0.5-2.2,1.5-2.4,3c-0.3,1.5-0.5,3-0.6,4.5c-0.3,3.5,0.1,7.2,1.9,9.8c0.5,0.7,1.2,1.1,2.1,1.2l5.4,0.4h0
	c-0.9-1.2-1.5-2.8-1.5-4.5c0-4.2,3.4-7.6,7.6-7.6c4.2,0,7.6,3.4,7.6,7.6c0,1.7-0.5,3.2-1.5,4.5h42.4c-0.9-1.3-1.5-2.8-1.5-4.5
	c0-4.2,3.4-7.6,7.6-7.6c4.2,0,7.6,3.4,7.6,7.6c0,1.7-0.5,3.2-1.4,4.4l6.3-0.4C-136.1,335.3-137.3,326.3-138.2,324L-138.2,324z"/>
<path class="st10" d="M-206.8,325.8c-3.4,0-6.1,2.7-6.1,6.1c0,1.4,0.4,2.6,1.2,3.6c1.1,1.5,2.9,2.5,4.9,2.5s3.8-1,5-2.5
	c0.8-1,1.2-2.3,1.2-3.6C-200.7,328.6-203.4,325.8-206.8,325.8L-206.8,325.8z"/>
<path class="st10" d="M-152.1,325.8c-3.4,0-6.1,2.7-6.1,6.1c0,1.3,0.4,2.6,1.2,3.6c1.1,1.5,2.9,2.5,5,2.5c2,0,3.8-1,5-2.5
	c0.7-1,1.2-2.2,1.2-3.6C-146,328.6-148.8,325.8-152.1,325.8L-152.1,325.8z"/>
<path class="st11" d="M-118.3,290.5c0,0-6,0.5-5.1,19.6c0.8,19.2-1.8,23.2-14.2,22.7"/>
<path class="st3" d="M-103.4,336h-15.1v5h15.1V336z"/>
<path class="st4" d="M-102.2,339h-17.4v2h17.4V339z"/>
<path class="st4" d="M-119,286.4v51.1h16.2v-57.6H-119V286.4z"/>
<path class="st5" d="M-111.8,310.7h-4.3v2.4h4.3V310.7z"/>
<path class="st5" d="M-115,305.4h0.5v0.1h-0.4v0.2h0.3v0.1h-0.3v0.3h-0.1L-115,305.4L-115,305.4z"/>
<path class="st5" d="M-114.3,305.4h0.1l0.3,0.8h-0.1l-0.1-0.2h-0.3l-0.1,0.2h-0.1L-114.3,305.4L-114.3,305.4z M-114.1,305.8
	l-0.1-0.3l-0.1,0.3H-114.1L-114.1,305.8z"/>
<path class="st5" d="M-113.7,305.9L-113.7,305.9C-113.7,306-113.7,306-113.7,305.9c0.1,0.1,0.1,0.1,0.1,0.1c0,0,0,0,0.1,0
	c0,0,0.1,0,0.1,0c0,0,0-0.1,0-0.1c0,0,0-0.1,0-0.1c0,0-0.1,0-0.1-0.1c0,0-0.1,0-0.1,0c0,0,0,0-0.1,0c0,0,0,0,0-0.1c0,0,0-0.1,0-0.1
	c0,0,0-0.1,0-0.1c0,0,0,0,0-0.1c0,0,0,0,0.1,0c0,0,0.1,0,0.1,0c0,0,0.1,0,0.1,0c0,0,0,0,0.1,0c0,0,0,0,0,0h0l-0.1,0.1h0l0,0
	c0,0,0,0,0,0c0,0,0,0-0.1,0s0,0-0.1,0c0,0,0,0,0,0c0,0,0,0,0,0c0,0,0,0,0,0v0c0,0,0,0,0,0c0,0,0,0,0.1,0c0,0,0,0,0.1,0
	c0,0,0.1,0,0.1,0c0,0,0.1,0,0.1,0c0,0,0,0,0.1,0.1c0,0,0,0.1,0,0.1c0,0,0,0.1,0,0.1c0,0,0,0.1-0.1,0.1c0,0-0.1,0-0.1,0
	c0,0-0.1,0-0.1,0c0,0-0.1,0-0.1,0c0,0-0.1,0-0.1,0C-113.7,306.1-113.7,306-113.7,305.9L-113.7,305.9L-113.7,305.9L-113.7,305.9z"/>
<path class="st5" d="M-112.9,305.5h-0.3v-0.1h0.6v0.1h-0.3v0.7h-0.1V305.5z"/>
<path class="st5" d="M-111.6,306C-111.6,306-111.6,306-111.6,306c0,0-0.1,0.1-0.1,0.1s-0.1,0-0.1,0c0,0-0.1,0-0.1,0
	c-0.1,0-0.1,0-0.2,0c0,0-0.1,0-0.1-0.1c0,0-0.1-0.1-0.1-0.1c0,0,0-0.1,0-0.2c0-0.1,0-0.1,0-0.2c0,0,0-0.1,0.1-0.1
	c0,0,0.1-0.1,0.1-0.1c0,0,0.1,0,0.2,0c0,0,0.1,0,0.1,0c0,0,0.1,0,0.1,0c0,0,0,0,0.1,0c0,0,0,0,0,0l-0.1,0.1l0,0c0,0,0,0,0,0
	c0,0,0,0-0.1,0c0,0,0,0-0.1,0c0,0-0.1,0-0.1,0c0,0-0.1,0-0.1,0.1c0,0,0,0.1-0.1,0.1c0,0,0,0.1,0,0.1c0,0,0,0.1,0,0.1
	c0,0,0,0.1,0.1,0.1c0,0,0.1,0,0.1,0.1c0,0,0.1,0,0.1,0c0,0,0.1,0,0.1,0s0,0,0.1,0c0,0,0,0,0,0v0L-111.6,306L-111.6,306z"/>
<path class="st5" d="M-111.4,305.4h0.1v0.3h0.4v-0.3h0.1v0.8h-0.1v-0.3h-0.4v0.3h-0.1V305.4z"/>
<path class="st5" d="M-110.4,305.4h0.1l0.3,0.8h-0.1l-0.1-0.2h-0.3l-0.1,0.2h-0.1L-110.4,305.4L-110.4,305.4z M-110.2,305.8
	l-0.1-0.3l-0.1,0.3H-110.2L-110.2,305.8z"/>
<path class="st5" d="M-109.9,305.4h0.2c0,0,0.1,0,0.1,0c0,0,0.1,0,0.1,0.1c0,0,0,0,0,0.1c0,0,0,0.1,0,0.1c0,0,0,0.1,0,0.1
	c0,0-0.1,0.1-0.1,0.1l0.2,0.3h-0.1l-0.2-0.3h-0.2v0.3h-0.1L-109.9,305.4L-109.9,305.4z M-109.7,305.7c0,0,0.1,0,0.1,0
	c0,0,0-0.1,0-0.1c0,0,0-0.1,0-0.1c0,0-0.1,0-0.1,0h-0.1v0.3L-109.7,305.7L-109.7,305.7z"/>
<path class="st5" d="M-108.8,305.7h0.3v0.3c0,0,0,0,0,0c0,0,0,0-0.1,0c0,0-0.1,0-0.1,0c0,0-0.1,0-0.1,0c-0.1,0-0.1,0-0.2,0
	c0,0-0.1,0-0.1-0.1c0,0-0.1-0.1-0.1-0.1c0,0,0-0.1,0-0.2c0-0.1,0-0.1,0-0.2c0,0,0-0.1,0.1-0.1c0,0,0.1-0.1,0.1-0.1c0,0,0.1,0,0.2,0
	c0,0,0.1,0,0.1,0c0,0,0.1,0,0.1,0c0,0,0,0,0.1,0l0,0l-0.1,0.1l0,0c0,0,0,0,0,0c0,0,0,0-0.1,0c0,0,0,0-0.1,0c0,0-0.1,0-0.1,0
	c0,0-0.1,0-0.1,0.1s0,0.1-0.1,0.1c0,0,0,0.1,0,0.1c0,0,0,0.1,0,0.1c0,0,0,0.1,0.1,0.1c0,0,0.1,0,0.1,0.1c0,0,0.1,0,0.1,0
	c0,0,0.1,0,0.1,0c0,0,0.1,0,0.1,0v-0.2h-0.2V305.7L-108.8,305.7z"/>
<path class="st5" d="M-108.4,305.4h0.1v0.8h-0.1V305.4z"/>
<path class="st5" d="M-108.1,305.4h0.1l0.4,0.6v-0.6h0.1v0.8h-0.1l-0.4-0.6v0.6h-0.1V305.4z"/>
<path class="st5" d="M-106.9,305.7h0.3v0.3c0,0,0,0,0,0c0,0,0,0-0.1,0c0,0-0.1,0-0.1,0c0,0-0.1,0-0.1,0c-0.1,0-0.1,0-0.2,0
	c0,0-0.1,0-0.1-0.1c0,0-0.1-0.1-0.1-0.1c0,0,0-0.1,0-0.2c0-0.1,0-0.1,0-0.2c0,0,0-0.1,0.1-0.1c0,0,0.1-0.1,0.1-0.1c0,0,0.1,0,0.2,0
	c0,0,0.1,0,0.1,0c0,0,0.1,0,0.1,0c0,0,0,0,0.1,0l0,0l-0.1,0.1l0,0c0,0,0,0,0,0c0,0,0,0-0.1,0c0,0,0,0-0.1,0c0,0-0.1,0-0.1,0
	c0,0-0.1,0-0.1,0.1c0,0,0,0.1-0.1,0.1c0,0,0,0.1,0,0.1c0,0,0,0.1,0,0.1c0,0,0,0.1,0.1,0.1c0,0,0.1,0,0.1,0.1c0,0,0.1,0,0.1,0
	c0,0,0.1,0,0.1,0c0,0,0.1,0,0.1,0v-0.2h-0.2V305.7L-106.9,305.7z"/>
<path class="st6" d="M-106.9,302.3L-106.9,302.3C-106.9,302.3-106.9,302.3-106.9,302.3c0-0.1,0-0.1,0.1-0.1c0,0,0,0,0,0c0,0,0,0,0,0
	s0,0,0,0c0,0,0,0,0,0c0,0,0,0,0,0s0,0,0,0s0,0,0,0c0,0,0,0,0,0c0,0,0,0,0,0c0,0,0,0,0,0S-106.8,302.4-106.9,302.3
	C-106.9,302.4-106.9,302.4-106.9,302.3C-106.9,302.3-106.9,302.3-106.9,302.3z M-106.8,302.4C-106.8,302.4-106.7,302.4-106.8,302.4
	C-106.7,302.4-106.7,302.4-106.8,302.4c0.1,0,0.1,0,0.1-0.1c0,0,0,0,0,0s0,0,0,0c0,0,0,0,0,0c0,0,0,0,0,0c0,0,0,0,0,0c0,0,0,0,0,0
	c0,0,0,0,0,0c0,0,0,0,0,0c0,0,0,0,0,0s0,0,0,0C-106.9,302.4-106.9,302.4-106.8,302.4C-106.8,302.4-106.8,302.4-106.8,302.4
	C-106.8,302.4-106.8,302.4-106.8,302.4z M-106.8,302.3L-106.8,302.3L-106.8,302.3C-106.7,302.3-106.7,302.3-106.8,302.3l0.1,0.1
	L-106.8,302.3L-106.8,302.3v0.1V302.3L-106.8,302.3z M-106.8,302.3L-106.8,302.3C-106.7,302.3-106.7,302.3-106.8,302.3L-106.8,302.3
	L-106.8,302.3L-106.8,302.3z"/>
<path class="st3" d="M-104.8,314.4h-12.3v8.6h12.3V314.4z"/>
<path class="st5" d="M-106.8,315.4h-2c-0.2,0-0.4,0.2-0.4,0.4v5.7c0,0.2,0.2,0.4,0.4,0.4h2c0.2,0,0.4-0.2,0.4-0.4v-5.7
	C-106.4,315.6-106.5,315.4-106.8,315.4z"/>
<path class="st5" d="M-113.1,315.4h-2c-0.2,0-0.4,0.2-0.4,0.4v5.7c0,0.2,0.2,0.4,0.4,0.4h2c0.2,0,0.4-0.2,0.4-0.4v-5.7
	C-112.6,315.6-112.8,315.4-113.1,315.4z"/>
<path class="st6" d="M-104.3,332.4c-2,0-4.1-0.9-4.1-2.9v-10.8h0.9v10.8c0,1.4,1.6,2,3.2,2c1.5,0,3.2-0.6,3.2-2v-35.4
	c0-0.8-0.2-1.5-0.8-1.9c-1.1-1-2.9-0.9-2.9-0.9l-0.1-0.9c0,0,2.2-0.1,3.6,1.1c0.7,0.6,1,1.5,1,2.6v35.4
	C-100.2,331.5-102.3,332.4-104.3,332.4z"/>
<path class="st4" d="M-119,281.5v12.3h16.2v-13.9H-119V281.5L-119,281.5z"/>
<path class="st3" d="M-104.8,286.1h-12.3v13.1h12.3V286.1z"/>
<path class="st7" d="M-106,287.1h-9.8v11.2h9.8V287.1z"/>
<text transform="matrix(1 0 0 1 -118.291 303.451)" class="st12 st13">EVstation</text>
</svg>
