<?xml version="1.0" encoding="utf-8"?>
<!-- Generator: Adobe Illustrator 19.0.0, SVG Export Plug-In . SVG Version: 6.00 Build 0)  -->
<svg version="1.1" id="Calque_1" xmlns="http://www.w3.org/2000/svg" xmlns:xlink="http://www.w3.org/1999/xlink" x="0px" y="0px"
	 viewBox="0 0 300 120" style="enable-background:new 0 0 300 120;" xml:space="preserve">
<style type="text/css">
	.st0{fill:#1D1D1B;}
	.st1{fill:#39A935;}
</style>
<g id="XMLID_125_">
	<polygon id="XMLID_1526_" class="st0" points="67.4,38.7 67.4,38.7 67.4,38.7 	"/>
	<polygon id="XMLID_154_" class="st0" points="67.4,38.8 67.4,38.8 67.4,38.7 67.4,38.7 	"/>
	<g id="XMLID_518_">
		<path id="XMLID_156_" class="st1" d="M65.5,77.8v2.7l-0.9,0c-10.4-0.2-19-8.3-20.2-18.3H33.3c-0.5,0-1-0.3-1.1-0.8
			c-0.2-0.7,0.4-1.3,1-1.3c0,0,9.5,0,11,0c0-0.1,0-0.2,0-0.4c0-11.2,9.1-20.6,20.4-20.8h0v0.4c0,0.2,0,0.3,0,0.5
			C54,40,45.1,48.8,45.1,59.6c0,0.1,0,0.2,0,0.4c0,0.7,0.1,1.4,0.2,2.1c1.2,9.7,9.4,17.2,19.3,17.5v-0.9c-10.3-0.3-18.6-8.7-18.6-19
			c0-10.2,8.4-18.6,18.6-19v0.9c-9.8,0.3-17.7,8.4-17.7,18.2c0,9.8,7.9,17.9,17.7,18.2c0,0,0,0,0,0L65.5,77.8z"/>
		<path id="XMLID_897_" class="st1" d="M64.6,60c-0.2-0.1-0.4-0.2-0.6-0.2l-12.5-0.1h0c-0.7,0-1.2,0.5-1.2,1.2c0,0,0,0,0,0
			c0,0.7,0.5,1.2,1.2,1.2L64,62.3c0.2,0,0.4-0.1,0.6-0.2c0.4-0.2,0.6-0.6,0.6-1.1S65,60.2,64.6,60z M64.6,61.6
			C64.6,61.6,64.6,61.6,64.6,61.6c-0.2,0.2-0.4,0.3-0.6,0.3l-12.5-0.1c-0.4,0-0.8-0.4-0.8-0.8c0-0.5,0.4-0.8,0.8-0.8L64,60.2
			c0.2,0,0.4,0.1,0.6,0.3c0.1,0.1,0.2,0.3,0.2,0.5C64.8,61.2,64.8,61.4,64.6,61.6z"/>
	</g>
	<g id="XMLID_519_">
		<path id="XMLID_1511_" class="st0" d="M111.3,68c-1.2,0.9-3,1.4-5.4,1.4c-1.6,0-3.2-0.3-4.7-0.9c-1.5-0.6-2.7-1.3-3.6-2.3
			l-0.8,1.4c0.9,1,2.2,1.8,3.9,2.4c1.6,0.6,3.4,1,5.2,1c2,0,3.6-0.3,5-0.9c1.4-0.6,2.4-1.4,3-2.4c0.6-1,1-2.1,1-3.3
			c0-1.5-0.4-2.6-1.1-3.5c-0.8-0.9-1.7-1.5-2.8-1.9c-1.1-0.4-2.6-0.9-4.4-1.3c-1.6-0.4-2.9-0.8-3.9-1.1c-1-0.4-1.8-0.9-2.4-1.5
			c-0.6-0.7-1-1.6-1-2.7c0-1.5,0.6-2.7,1.8-3.6c1.2-0.9,2.9-1.4,5.3-1.4c1.2,0,2.4,0.2,3.6,0.5c1.2,0.4,2.3,0.9,3.3,1.6l0.7-1.5
			c-1-0.7-2.1-1.3-3.5-1.6c-1.3-0.4-2.7-0.6-4.1-0.6c-2,0-3.6,0.3-4.9,0.9c-1.3,0.6-2.3,1.4-3,2.4c-0.6,1-1,2.1-1,3.4
			c0,1.5,0.4,2.7,1.2,3.6c0.8,0.9,1.7,1.6,2.8,2c1.1,0.4,2.6,0.9,4.4,1.3c1.6,0.4,2.9,0.8,3.9,1.1c1,0.4,1.8,0.9,2.4,1.5
			s1,1.6,1,2.7C113.1,66,112.5,67.1,111.3,68z"/>
		<polygon id="XMLID_1510_" class="st0" points="127.7,70.8 127.7,47.4 136.7,47.4 136.7,45.8 116.9,45.8 116.9,47.4 125.9,47.4 
			125.9,70.8 		"/>
		<polygon id="XMLID_1509_" class="st0" points="137,70.8 139,70.8 149.4,47.9 149.5,47.9 160,70.8 161.9,70.8 150.4,45.8 
			148.6,45.8 		"/>
		<polygon id="XMLID_1508_" class="st0" points="173,70.8 173,47.4 182.1,47.4 182.1,45.8 162.2,45.8 162.2,47.4 171.2,47.4 
			171.2,70.8 		"/>
		<rect id="XMLID_1507_" x="186.6" y="45.8" class="st0" width="1.8" height="25"/>
		<path id="XMLID_1504_" class="st0" d="M214.4,47.3c-2-1.1-4.2-1.6-6.7-1.6c-2.5,0-4.7,0.5-6.6,1.6c-2,1.1-3.5,2.6-4.6,4.6
			c-1.1,1.9-1.7,4.1-1.7,6.5c0,2.4,0.6,4.5,1.7,6.5c1.1,1.9,2.7,3.4,4.6,4.5c2,1.1,4.2,1.7,6.6,1.7c2.5,0,4.7-0.5,6.7-1.6
			c2-1.1,3.5-2.6,4.7-4.5c1.1-1.9,1.7-4.1,1.7-6.5c0-2.4-0.6-4.6-1.7-6.5C217.9,49.9,216.3,48.4,214.4,47.3z M218.9,58.3
			c0,2.1-0.5,3.9-1.5,5.6c-1,1.7-2.3,3-4,4c-1.7,1-3.6,1.4-5.7,1.4c-2.1,0-4-0.5-5.7-1.4c-1.7-1-3.1-2.3-4-4c-1-1.7-1.5-3.5-1.5-5.6
			c0-2.1,0.5-4,1.5-5.6c1-1.7,2.3-3,4-3.9c1.7-1,3.6-1.4,5.7-1.4c2.1,0,4,0.5,5.7,1.4c1.7,1,3,2.3,4,3.9
			C218.4,54.3,218.9,56.2,218.9,58.3z"/>
		<polygon id="XMLID_1503_" class="st0" points="228.6,45.8 227.1,45.8 227.1,70.8 228.9,70.8 228.9,49.1 246,70.8 247.5,70.8 
			247.5,45.8 245.6,45.8 245.6,67.5 		"/>
		<polygon id="XMLID_1499_" class="st0" points="251.2,77.8 66.9,77.8 66.9,80.4 252.7,80.4 264.1,80.4 254.3,77.8 		"/>
		<path id="XMLID_158_" class="st0" d="M266.2,38.7l-8.7,2.7H94.6L82.8,76.3h-2.6L68.3,41.4h-2.8l-0.8,0c0,0,0,0,0,0v-1.8
			c0-0.2,0-0.3,0-0.5v-0.4l0.9,0l1.9,0l0,0h0l0,0h3.1l11,32.4l11-32.4h3l160.6,0H266.2z"/>
		<path id="XMLID_1487_" class="st0" d="M266.7,58.9h-13.8v2.7h13.8c0.7,0,1.3-0.6,1.3-1.3C268.1,59.5,267.4,58.9,266.7,58.9z"/>
		<path id="XMLID_159_" class="st0" d="M64.6,39.6v-0.5C64.6,39.3,64.7,39.4,64.6,39.6z"/>
	</g>
</g>
</svg>
