<?xml version="1.0" encoding="utf-8"?>
<!-- Generator: Adobe Illustrator 19.0.0, SVG Export Plug-In . SVG Version: 6.00 Build 0)  -->
<svg version="1.1" id="Calque_1" xmlns="http://www.w3.org/2000/svg" xmlns:xlink="http://www.w3.org/1999/xlink" x="0px" y="0px"
	 viewBox="0 0 960 560" style="enable-background:new 0 0 960 560;" xml:space="preserve">
<style type="text/css">
	.st0{fill:none;}
	.st1{fill:#39A935;}
	.st2{fill:#1D1D1B;}
	.st3{fill:#F8AE13;}
	.st4{font-family:'Belanosima-SemiBold';}
	.st5{font-size:19px;}
</style>
<g id="XMLID_2_">
	<path id="XMLID_182_" class="st0" d="M437.5,218.4v1c0.1-0.1,0.2-0.3,0.2-0.5C437.7,218.7,437.6,218.5,437.5,218.4z"/>
	<path id="XMLID_181_" class="st0" d="M437.5,199c-0.1,0-0.2,0-0.3,0c-9.9,0.4-17.8,8.6-17.8,18.6c0,0.1,0,0.2,0,0.3
		c0,0.7,0,1.3,0.1,2c1.1,9,8.7,16,18,16.2v-0.9c-9.6-0.2-17.3-8.1-17.3-17.7c0-9.5,7.5-17.3,17-17.7c0.1,0,0.2,0,0.3,0V199z"/>
	<path id="XMLID_180_" class="st0" d="M421,217.5c0,9.1,7.4,16.7,16.5,16.9v-14.5c-0.2,0.1-0.4,0.1-0.6,0.1h0l-11.6-0.1
		c-0.6,0-1.1-0.5-1.1-1.2v0c0-0.6,0.5-1.1,1.1-1.1h0l11.6,0.1c0.2,0,0.4,0.1,0.5,0.1v-17.3C428.4,200.9,421,208.5,421,217.5z"/>
	<path id="XMLID_179_" class="st0" d="M436.9,218.2l-11.6-0.1c-0.4,0-0.7,0.3-0.8,0.7c0,0.4,0.3,0.7,0.7,0.8l11.6,0.1
		c0.2,0,0.4-0.1,0.5-0.2c0,0,0,0,0,0v-1C437.3,218.3,437.1,218.2,436.9,218.2z"/>
	<path id="XMLID_178_" class="st1" d="M421,217.5c0-9.1,7.4-16.7,16.5-16.9v-0.3c-0.1-0.1-0.2-0.3-0.3-0.4c-9.4,0.4-17,8.2-17,17.7
		c0,9.6,7.7,17.5,17.3,17.7v-0.8C428.4,234.2,421,226.6,421,217.5z"/>
	<polygon id="XMLID_177_" points="454.1,232.7 452.2,232.7 441.3,200.6 440.9,200.6 451.9,233.1 454.4,233.1 465.4,200.6 465,200.6 
			"/>
	<polygon id="XMLID_176_" points="440.1,198.1 440.1,198.1 440.1,198.1 	"/>
	<path id="XMLID_175_" d="M441.8,198.2c0.3,0,0.6,0.1,0.9,0.4h0.1l0,0.1c0.2,0.2,0.3,0.5,0.3,0.8c0,0,0,0,0,0l10.2,30l9.8-28.8h-0.4
		l0.8-2.5l-10.2,30.1L443,198.1h-2.9l0,0H441.8z"/>
	<polygon id="XMLID_174_" points="466.3,198.1 463.4,198.1 466.3,198.1 	"/>
	<path id="XMLID_173_" d="M453.2,230.7l10.2-30.1H463l-9.8,28.8l-10.2-30c0,0.2-0.1,0.5-0.2,0.6L453.2,230.7z"/>
	<polygon id="XMLID_172_" points="453.8,232.3 452.5,232.3 441.8,200.6 441.3,200.6 452.2,232.7 454.1,232.7 465,200.6 464.6,200.6 
			"/>
	<path id="XMLID_171_" d="M442.7,198.5L442.7,198.5c0,0,0,0.1,0,0.1L442.7,198.5z"/>
	<polygon id="XMLID_170_" points="440.1,198.2 440.1,198.1 440.1,198.1 440.1,198.2 	"/>
	<path id="XMLID_169_" class="st1" d="M437.5,198.5c-0.1,0.1-0.3,0.3-0.3,0.5c0.1,0,0.2,0,0.3,0V198.5z"/>
	<rect id="XMLID_168_" x="438.3" y="200.6" width="0" height="0"/>
	<path id="XMLID_167_" class="st1" d="M437.2,199.9c0.1,0.2,0.2,0.3,0.3,0.4v-0.5C437.4,199.9,437.3,199.9,437.2,199.9z"/>
	<path id="XMLID_166_" d="M442.8,200.1l-0.4-1.2h-1.2l0.6,1.7h0C442.2,200.6,442.6,200.4,442.8,200.1z"/>
	<path id="XMLID_165_" d="M443,199.4c0-0.3-0.1-0.6-0.3-0.8L443,199.4C443,199.4,443,199.4,443,199.4z"/>
	<path id="XMLID_164_" d="M440.6,198.5h2c-0.2-0.2-0.5-0.4-0.9-0.4h-1.7l0.8,2.5h0.4L440.6,198.5z"/>
	<polygon id="XMLID_163_" points="440.1,198.2 440.9,200.6 440.1,198.2 	"/>
	<path id="XMLID_162_" d="M441.3,200.6h0.4l-0.6-1.7h1.2l0.4,1.2c0.1-0.2,0.2-0.4,0.2-0.6l-0.3-0.8c0,0-0.1-0.1-0.1-0.1h-2
		L441.3,200.6z"/>
	<path id="XMLID_161_" class="st1" d="M437.5,236.1c-9.3-0.2-16.9-7.2-18-16.2h-0.8c1.2,9.4,9.1,16.8,18.8,17l0.8,0v-2.5l-0.8,0
		c0,0,0,0,0,0v0.8V236.1z"/>
	<path id="XMLID_160_" class="st1" d="M419.3,217.5c0-10,7.9-18.2,17.8-18.6c0.1-0.2,0.2-0.4,0.3-0.5v-0.3l0,0
		c-10.4,0.2-18.9,8.9-18.9,19.4c0,0.1,0,0.2,0,0.3h0.8C419.3,217.8,419.3,217.7,419.3,217.5z"/>
	<path id="XMLID_159_" class="st1" d="M419.3,217.9h-0.8c-1.4,0-10.2,0-10.2,0c-0.6,0-1.1,0.6-1,1.3c0.1,0.5,0.6,0.8,1,0.8h10.3h0.8
		C419.4,219.2,419.4,218.5,419.3,217.9z"/>
	<polygon id="XMLID_158_" points="479.9,234.5 439.6,234.5 439.6,236.9 480.2,236.9 482.7,236.9 480.5,234.5 	"/>
	<path id="XMLID_157_" d="M453.8,232.3l10.7-31.7h-1.1l-10.2,30.1l-10.4-30.6c-0.2,0.3-0.6,0.5-1,0.5h0l10.7,31.7H453.8z"/>
	<polygon id="XMLID_156_" points="453.8,232.3 464.6,200.6 464.6,200.6 	"/>
	<polygon id="XMLID_155_" points="463.4,200.6 453.2,230.7 463.4,200.6 	"/>
	<polygon id="XMLID_154_" points="464.6,200.6 465.1,198.9 464,198.9 463.4,200.6 	"/>
	<polygon id="XMLID_153_" points="464.6,200.6 465.1,198.9 464.6,200.6 	"/>
	<polygon id="XMLID_152_" points="464,198.9 463.4,200.6 463.4,200.6 	"/>
	<polygon id="XMLID_151_" points="479.3,200.6 479.5,200.6 480.3,198.2 479.4,198.2 465.5,198.1 465.4,200.6 	"/>
	<polygon id="XMLID_150_" points="463,200.6 463.7,198.5 465.7,198.5 465,200.6 465.4,200.6 466.3,198.1 463.4,198.1 462.6,200.6 	
		"/>
	<polygon id="XMLID_149_" points="464,198.9 465.1,198.9 464.6,200.6 465,200.6 465.7,198.5 463.7,198.5 463,200.6 463.4,200.6 	"/>
	<path id="XMLID_148_" class="st1" d="M437.7,218.9c0,0.2-0.1,0.4-0.2,0.5v0.5c0.4-0.2,0.6-0.6,0.6-1c0-0.4-0.2-0.8-0.6-1v0.5
		C437.6,218.5,437.7,218.7,437.7,218.9z"/>
	<path id="XMLID_147_" class="st1" d="M425.3,217.7L425.3,217.7c-0.6,0-1.1,0.5-1.2,1.1v0c0,0.6,0.5,1.1,1.1,1.2l11.6,0.1h0
		c0.2,0,0.4-0.1,0.6-0.1v-0.5c0,0,0,0,0,0c-0.1,0.1-0.3,0.2-0.5,0.2l-11.6-0.1c-0.4,0-0.7-0.3-0.7-0.8c0-0.4,0.4-0.8,0.8-0.7
		l11.6,0.1c0.2,0,0.4,0.1,0.5,0.2v-0.5c-0.2-0.1-0.3-0.1-0.5-0.1L425.3,217.7z"/>
	<path id="XMLID_146_" class="st2" d="M478.3,217.1h-12.8v2.5h12.8c0.7,0,1.3-0.6,1.3-1.3C479.6,217.7,479,217.1,478.3,217.1z"/>
	<rect id="XMLID_145_" x="438.3" y="200.6" class="st0" width="0" height="0"/>
	<path id="XMLID_144_" d="M438.3,200.6V199h-0.8v0.9v0.5C437.7,200.5,438,200.6,438.3,200.6L438.3,200.6L438.3,200.6L438.3,200.6z"
		/>
	<path id="XMLID_143_" d="M437.5,200.7C437.5,200.7,437.5,200.7,437.5,200.7l0.8,0c-0.3,0-0.6-0.1-0.8-0.3V200.7z"/>
	<path id="XMLID_142_" d="M440.1,198.2L440.1,198.2l-1.8,0l-0.8,0v0.3v0.5h0.8v1.7v0l0,0c0,0,0,0,0,0h2.6L440.1,198.2z"/>
	<rect id="XMLID_140_" x="440.4" y="272.3" width="4.6" height="4.6"/>
	<path id="XMLID_139_" class="st3" d="M385.7,153.6h6.8v-4.6h-9.1c-1.3,0-2.3,1-2.3,2.3v9.1h4.6V153.6z"/>
	<path id="XMLID_138_" class="st3" d="M524.9,149.1h-9.1v4.6h6.8v6.8h4.6v-9.1C527.1,150.1,526.1,149.1,524.9,149.1z"/>
	<path id="XMLID_137_" class="st3" d="M385.7,283.7h-4.6v9.1c0,1.3,1,2.3,2.3,2.3h9.1v-4.6h-6.8V283.7z"/>
	<path id="XMLID_136_" class="st3" d="M522.6,290.5h-6.8v4.6h9.1c1.3,0,2.3-1,2.3-2.3v-9.1h-4.6V290.5z"/>
	<path id="XMLID_133_" d="M390.3,160.5v27.4c0,1.3,1,2.3,2.3,2.3h27.4c1.3,0,2.3-1,2.3-2.3v-27.4c0-1.3-1-2.3-2.3-2.3h-27.4
		C391.3,158.2,390.3,159.2,390.3,160.5z M394.8,162.8h22.8v22.8h-22.8V162.8z"/>
	<path id="XMLID_130_" d="M410.8,167.3h-9.1c-1.3,0-2.3,1-2.3,2.3v9.1c0,1.3,1,2.3,2.3,2.3h9.1c1.3,0,2.3-1,2.3-2.3v-9.1
		C413.1,168.3,412,167.3,410.8,167.3z M408.5,176.5h-4.6v-4.6h4.6V176.5z"/>
	<path id="XMLID_127_" d="M488.4,190.1h27.4c1.3,0,2.3-1,2.3-2.3v-27.4c0-1.3-1-2.3-2.3-2.3h-27.4c-1.3,0-2.3,1-2.3,2.3v27.4
		C486.1,189.1,487.1,190.1,488.4,190.1z M490.6,162.8h22.8v22.8h-22.8V162.8z"/>
	<path id="XMLID_124_" d="M506.6,167.3h-9.1c-1.3,0-2.3,1-2.3,2.3v9.1c0,1.3,1,2.3,2.3,2.3h9.1c1.3,0,2.3-1,2.3-2.3v-9.1
		C508.9,168.3,507.9,167.3,506.6,167.3z M504.3,176.5h-4.6v-4.6h4.6V176.5z"/>
	<path id="XMLID_121_" d="M419.9,254h-27.4c-1.3,0-2.3,1-2.3,2.3v27.4c0,1.3,1,2.3,2.3,2.3h27.4c1.3,0,2.3-1,2.3-2.3v-27.4
		C422.2,255,421.2,254,419.9,254z M417.6,281.4h-22.8v-22.8h22.8V281.4z"/>
	<path id="XMLID_118_" d="M401.7,276.8h9.1c1.3,0,2.3-1,2.3-2.3v-9.1c0-1.3-1-2.3-2.3-2.3h-9.1c-1.3,0-2.3,1-2.3,2.3v9.1
		C399.4,275.8,400.4,276.8,401.7,276.8z M403.9,267.7h4.6v4.6h-4.6V267.7z"/>
	<rect id="XMLID_117_" x="431.3" y="176.5" width="16" height="4.6"/>
	<rect id="XMLID_116_" x="440.4" y="167.3" width="16" height="4.6"/>
	<rect id="XMLID_115_" x="390.3" y="192.4" width="4.6" height="20.5"/>
	<rect id="XMLID_114_" x="401.7" y="194.7" width="4.6" height="4.6"/>
	<rect id="XMLID_113_" x="451.9" y="176.5" width="4.6" height="18.3"/>
	<path id="XMLID_112_" d="M520.3,215.2h-4.6V238h-6.8v4.6h9.1c1.3,0,2.3-1,2.3-2.3V215.2z"/>
	<rect id="XMLID_111_" x="390.3" y="224.4" width="4.6" height="18.3"/>
	<rect id="XMLID_110_" x="390.3" y="244.9" width="20.5" height="4.6"/>
	<rect id="XMLID_109_" x="401.7" y="224.4" width="4.6" height="4.6"/>
	<rect id="XMLID_108_" x="429" y="267.7" width="4.6" height="9.1"/>
	<rect id="XMLID_107_" x="428.5" y="244.9" width="4.6" height="9.1"/>
	<rect id="XMLID_106_" x="486.1" y="196.1" width="4.6" height="9.1"/>
	<rect id="XMLID_105_" x="426.8" y="258.6" width="20.5" height="4.6"/>
	<rect id="XMLID_104_" x="515.7" y="270" width="4.6" height="16"/>
	<rect id="XMLID_103_" x="504.3" y="281.4" width="6.8" height="4.6"/>
	<rect id="XMLID_102_" x="504.3" y="267.7" width="4.6" height="9.1"/>
	<path id="XMLID_101_" d="M520.3,249.5c0-1.3-1-2.3-2.3-2.3h-25.1v4.6h22.8v13.7h4.6V249.5z"/>
	<path id="XMLID_100_" d="M490.6,276.8v-11.4c0-1.3-1-2.3-2.3-2.3h-25.1v4.6h22.8v9.1H490.6z"/>
	<rect id="XMLID_99_" x="495.2" y="256.3" width="16" height="4.6"/>
	<rect id="XMLID_98_" x="426.8" y="281.4" width="16" height="4.6"/>
	<rect id="XMLID_97_" x="449.6" y="265.4" width="4.6" height="20.5"/>
	<rect id="XMLID_96_" x="418.7" y="232.3" width="4.6" height="20.5"/>
	<rect id="XMLID_95_" x="454.1" y="254" width="9.1" height="4.6"/>
	<rect id="XMLID_94_" x="500.9" y="216" width="11.4" height="4.6"/>
	<rect id="XMLID_93_" x="504.3" y="194.7" width="6.8" height="4.6"/>
	<rect id="XMLID_92_" x="515.7" y="194.7" width="4.6" height="11.4"/>
	<rect id="XMLID_91_" x="504.3" y="206.1" width="4.6" height="4.6"/>
	<path id="XMLID_90_" d="M470.1,187.9h9.1c1.3,0,2.3-1,2.3-2.3v-29.7h-4.6v27.4h-6.8V187.9z"/>
	<path id="XMLID_89_" d="M435.9,160.5h34.2v-4.6h-36.5c-1.3,0-2.3,1-2.3,2.3v11.4h4.6V160.5z"/>
	<rect id="XMLID_88_" x="463.3" y="272.3" width="16" height="4.6"/>
	<rect id="XMLID_87_" x="463.3" y="281.4" width="20.5" height="4.6"/>
	<path id="XMLID_86_" d="M495.2,281.4h-4.6v4.6h6.8c1.3,0,2.3-1,2.3-2.3v-18.3h-4.6V281.4z"/>
	<rect id="XMLID_85_" x="495.2" y="224.4" width="4.6" height="4.6"/>
	<rect id="XMLID_84_" x="495.2" y="198.1" width="4.6" height="4.6"/>
	<rect id="XMLID_83_" x="464" y="242.6" width="4.6" height="4.6"/>
	<rect id="XMLID_82_" x="483.8" y="227.2" width="4.6" height="4.6"/>
	<rect id="XMLID_81_" x="462" y="190.1" width="4.6" height="4.6"/>
	<rect id="XMLID_80_" x="479.2" y="190.1" width="4.6" height="4.6"/>
	<rect id="XMLID_79_" x="488.4" y="212.8" width="4.6" height="4.6"/>
	<rect id="XMLID_78_" x="480.4" y="208.4" width="4.6" height="4.6"/>
	<rect id="XMLID_77_" x="442.7" y="247.2" width="4.6" height="4.6"/>
	<rect id="XMLID_76_" x="406.2" y="235.8" width="4.6" height="4.6"/>
	<rect id="XMLID_75_" x="413.1" y="224.4" width="4.6" height="4.6"/>
	<rect id="XMLID_74_" x="413.1" y="203.8" width="4.6" height="4.6"/>
	<rect id="XMLID_73_" x="427" y="190.1" width="4.6" height="4.6"/>
	<rect id="XMLID_72_" x="401.7" y="210.7" width="4.6" height="4.6"/>
	<rect id="XMLID_71_" x="483.8" y="247.2" width="4.6" height="4.6"/>
	<rect id="XMLID_70_" x="470.1" y="254" width="6.8" height="4.6"/>
	<rect id="XMLID_69_" x="495.2" y="235.8" width="4.6" height="4.6"/>
	<rect id="XMLID_68_" x="504.3" y="226.6" width="6.8" height="4.6"/>
	<rect id="XMLID_9_" x="391.3" y="290.5" class="st3" width="124.4" height="4.6"/>
</g>
<text id="XMLID_1_" transform="matrix(1 0 0 1 301 323)" class="st4 st5">Download the app for more information</text>
</svg>
